<?xml version="1.0" encoding="utf-8"?>
<!-- Generator: Adobe Illustrator 22.0.0, SVG Export Plug-In . SVG Version: 6.00 Build 0)  -->
<svg version="1.1" id="Layer_1" xmlns="http://www.w3.org/2000/svg" xmlns:xlink="http://www.w3.org/1999/xlink" x="0px" y="0px"
	 viewBox="0 0 216 216" style="enable-background:new 0 0 216 216;" xml:space="preserve">
<style type="text/css">
	.st0{fill:#60379C;}
</style>
<path class="st0" d="M107.8,2C50.3,2,3.5,48.8,3.5,106.3s46.8,104.3,104.3,104.3S212,163.7,212,106.3S165.2,2,107.8,2z M107.8,204.5
	c-54.2,0-98.3-44.1-98.3-98.3C9.5,52.1,53.6,8,107.8,8c54.2,0,98.3,44.1,98.3,98.3C206,160.4,161.9,204.5,107.8,204.5z M91.9,48
	H54.1c-3.9,0-7.1,3.2-7.1,7.1v36.8c0,3.9,3.2,7.1,7.1,7.1h37.8c3.9,0,7.1-3.2,7.1-7.1V55.1C99,51.2,95.8,48,91.9,48z M92,91.9
	c0,0.1,0,0.1-0.1,0.1H54.1C54,92,54,92,54,91.9V55.1c0-0.1,0-0.1,0.1-0.1h37.8c0.1,0,0.1,0,0.1,0.1V91.9z M91.9,106H54.1
	c-3.9,0-7.1,3.2-7.1,7.1v36.8c0,3.9,3.2,7.1,7.1,7.1h37.8c3.9,0,7.1-3.2,7.1-7.1v-36.8C99,109.2,95.8,106,91.9,106z M92,149.9
	c0,0.1,0,0.1-0.1,0.1H54.1c-0.1,0-0.1,0-0.1-0.1v-36.8c0-0.1,0-0.1,0.1-0.1h37.8c0.1,0,0.1,0,0.1,0.1V149.9z M113.1,99h37.8
	c3.9,0,7.1-3.2,7.1-7.1V55.1c0-3.9-3.2-7.1-7.1-7.1h-37.8c-3.9,0-7.1,3.2-7.1,7.1v36.8C106,95.8,109.2,99,113.1,99z M113,55.1
	c0-0.1,0-0.1,0.1-0.1h37.8c0.1,0,0.1,0,0.1,0.1v36.8c0,0.1,0,0.1-0.1,0.1h-37.8c-0.1,0-0.1,0-0.1-0.1V55.1z M152.7,147.2
	c3.3-4.3,5.3-9.6,5.3-15.5c0-13.9-11.3-25.3-25.3-25.3s-25.3,11.3-25.3,25.3s11.3,25.3,25.3,25.3c5.6,0,10.7-1.8,14.9-4.9l11.4,11.4
	c1.4,1.4,3.6,1.4,4.9,0c1.4-1.4,1.4-3.6,0-4.9L152.7,147.2z M132.8,150c-10.1,0-18.3-8.2-18.3-18.3s8.2-18.3,18.3-18.3
	s18.3,8.2,18.3,18.3S142.8,150,132.8,150z"/>
</svg>
