<?xml version="1.0" encoding="utf-8"?>
<!-- Generator: Adobe Illustrator 22.0.0, SVG Export Plug-In . SVG Version: 6.00 Build 0)  -->
<svg version="1.1" id="Layer_1" xmlns="http://www.w3.org/2000/svg" xmlns:xlink="http://www.w3.org/1999/xlink" x="0px" y="0px"
	 viewBox="0 0 223.8 56" style="enable-background:new 0 0 223.8 56;" xml:space="preserve">
<style type="text/css">
	.st0{fill:#592F95;}
	.st1{display:none;}
	.st2{display:inline;fill:#FFFFFF;}
	.st3{fill:#FFFFFF;}
</style>
<rect x="-0.3" y="1.5" class="st0" width="224" height="51"/>
<g class="st1">
	<path class="st2" d="M48.7,33.8V21.6h3.5c1.1,0,2,0.2,2.8,0.7c0.8,0.5,1.4,1.1,1.9,2c0.4,0.9,0.7,1.9,0.7,3V28c0,1.2-0.2,2.2-0.7,3
		c-0.4,0.9-1.1,1.5-1.9,2s-1.8,0.7-2.9,0.7H48.7z M50.3,22.9v9.6H52c1.2,0,2.2-0.4,2.9-1.2c0.7-0.8,1-1.9,1-3.3v-0.7
		c0-1.4-0.3-2.5-1-3.2c-0.7-0.8-1.6-1.2-2.8-1.2H50.3z"/>
	<path class="st2" d="M69.4,28.1c0,1.2-0.2,2.2-0.6,3.1c-0.4,0.9-1,1.6-1.7,2c-0.7,0.5-1.6,0.7-2.6,0.7c-1,0-1.8-0.2-2.6-0.7
		c-0.7-0.5-1.3-1.1-1.7-2c-0.4-0.9-0.6-1.9-0.6-3v-0.9c0-1.2,0.2-2.2,0.6-3.1c0.4-0.9,1-1.6,1.7-2.1c0.7-0.5,1.6-0.7,2.6-0.7
		c1,0,1.8,0.2,2.6,0.7c0.7,0.5,1.3,1.2,1.7,2.1c0.4,0.9,0.6,1.9,0.6,3.1V28.1z M67.7,27.3c0-1.4-0.3-2.6-0.9-3.3
		c-0.6-0.8-1.4-1.2-2.4-1.2c-1,0-1.8,0.4-2.4,1.2c-0.6,0.8-0.9,1.9-0.9,3.2v0.9c0,1.4,0.3,2.5,0.9,3.3c0.6,0.8,1.4,1.2,2.4,1.2
		c1,0,1.8-0.4,2.4-1.1c0.6-0.8,0.9-1.8,0.9-3.3V27.3z"/>
	<path class="st2" d="M74.4,29.9l0.2,1.6l0.3-1.5l2.4-8.5h1.4l2.4,8.5l0.3,1.5l0.3-1.6l1.9-8.4h1.6l-3,12.2h-1.5l-2.5-8.9l-0.2-0.9
		l-0.2,0.9l-2.6,8.9h-1.5l-3-12.2h1.6L74.4,29.9z"/>
	<path class="st2" d="M96.4,33.8h-1.6l-6.2-9.4v9.4H87V21.6h1.6l6.2,9.5v-9.5h1.6V33.8z"/>
	<path class="st2" d="M100.9,32.5h5.8v1.3h-7.4V21.6h1.6V32.5z"/>
	<path class="st2" d="M117.4,28.1c0,1.2-0.2,2.2-0.6,3.1c-0.4,0.9-1,1.6-1.7,2c-0.7,0.5-1.6,0.7-2.6,0.7c-1,0-1.8-0.2-2.6-0.7
		c-0.7-0.5-1.3-1.1-1.7-2c-0.4-0.9-0.6-1.9-0.6-3v-0.9c0-1.2,0.2-2.2,0.6-3.1c0.4-0.9,1-1.6,1.7-2.1c0.7-0.5,1.6-0.7,2.6-0.7
		c1,0,1.8,0.2,2.6,0.7c0.7,0.5,1.3,1.2,1.7,2.1c0.4,0.9,0.6,1.9,0.6,3.1V28.1z M115.8,27.3c0-1.4-0.3-2.6-0.9-3.3
		c-0.6-0.8-1.4-1.2-2.4-1.2c-1,0-1.8,0.4-2.4,1.2c-0.6,0.8-0.9,1.9-0.9,3.2v0.9c0,1.4,0.3,2.5,0.9,3.3c0.6,0.8,1.4,1.2,2.4,1.2
		c1,0,1.8-0.4,2.4-1.1c0.6-0.8,0.9-1.8,0.9-3.3V27.3z"/>
	<path class="st2" d="M126.4,30.6h-5.1l-1.2,3.2h-1.7l4.7-12.2h1.4l4.7,12.2h-1.7L126.4,30.6z M121.8,29.3h4.2l-2.1-5.7L121.8,29.3z
		"/>
	<path class="st2" d="M130.9,33.8V21.6h3.5c1.1,0,2,0.2,2.8,0.7s1.4,1.1,1.9,2c0.4,0.9,0.7,1.9,0.7,3V28c0,1.2-0.2,2.2-0.7,3
		c-0.4,0.9-1.1,1.5-1.9,2c-0.8,0.5-1.8,0.7-2.9,0.7H130.9z M132.5,22.9v9.6h1.7c1.2,0,2.2-0.4,2.9-1.2c0.7-0.8,1-1.9,1-3.3v-0.7
		c0-1.4-0.3-2.5-1-3.2s-1.6-1.2-2.8-1.2H132.5z"/>
	<path class="st2" d="M153.1,28.4H148v5.4h-1.6V21.6h7.6v1.3h-6v4.2h5.1V28.4z"/>
	<path class="st2" d="M165.3,28.1c0,1.2-0.2,2.2-0.6,3.1c-0.4,0.9-1,1.6-1.7,2c-0.7,0.5-1.6,0.7-2.6,0.7c-1,0-1.8-0.2-2.6-0.7
		c-0.7-0.5-1.3-1.1-1.7-2c-0.4-0.9-0.6-1.9-0.6-3v-0.9c0-1.2,0.2-2.2,0.6-3.1c0.4-0.9,1-1.6,1.7-2.1c0.7-0.5,1.6-0.7,2.6-0.7
		c1,0,1.8,0.2,2.6,0.7c0.7,0.5,1.3,1.2,1.7,2.1c0.4,0.9,0.6,1.9,0.6,3.1V28.1z M163.7,27.3c0-1.4-0.3-2.6-0.9-3.3
		c-0.6-0.8-1.4-1.2-2.4-1.2c-1,0-1.8,0.4-2.4,1.2c-0.6,0.8-0.9,1.9-0.9,3.2v0.9c0,1.4,0.3,2.5,0.9,3.3c0.6,0.8,1.4,1.2,2.4,1.2
		c1,0,1.8-0.4,2.4-1.1c0.6-0.8,0.9-1.8,0.9-3.3V27.3z"/>
	<path class="st2" d="M172.2,28.8h-2.9v4.9h-1.6V21.6h4c1.4,0,2.4,0.3,3.2,0.9c0.7,0.6,1.1,1.5,1.1,2.7c0,0.8-0.2,1.4-0.6,2
		s-1,1-1.7,1.3l2.9,5.2v0.1h-1.7L172.2,28.8z M169.3,27.5h2.5c0.8,0,1.4-0.2,1.9-0.6c0.5-0.4,0.7-1,0.7-1.7c0-0.8-0.2-1.3-0.7-1.7
		c-0.5-0.4-1.1-0.6-2-0.6h-2.5V27.5z"/>
	<path class="st2" d="M180.4,21.6l4,10l4-10h2.1v12.2h-1.6V29l0.2-5.1l-4,9.9h-1.2l-4-9.9l0.2,5.1v4.8h-1.6V21.6H180.4z"/>
	<path class="st2" d="M200.2,30.6h-5.1l-1.2,3.2h-1.7l4.7-12.2h1.4l4.7,12.2h-1.7L200.2,30.6z M195.6,29.3h4.2l-2.1-5.7L195.6,29.3z
		"/>
	<path class="st2" d="M212.1,22.9h-3.9v10.9h-1.6V22.9h-3.9v-1.3h9.5V22.9z"/>
</g>
<g>
	<g>
		<path class="st3" d="M89,35.2V21.7h4.4c1.5,0,2.6,0.3,3.3,0.9c0.7,0.6,1.1,1.5,1.1,2.7c0,0.6-0.2,1.2-0.5,1.7
			c-0.4,0.5-0.8,0.9-1.5,1.1c0.7,0.2,1.3,0.6,1.7,1.2c0.4,0.6,0.6,1.3,0.6,2c0,1.2-0.4,2.2-1.2,2.9s-1.9,1-3.3,1H89z M90.8,27.5h2.7
			c0.8,0,1.4-0.2,1.9-0.6c0.5-0.4,0.7-0.9,0.7-1.6c0-0.7-0.2-1.3-0.6-1.6c-0.4-0.3-1.1-0.5-2-0.5h-2.6V27.5z M90.8,28.9v4.9h2.9
			c0.8,0,1.5-0.2,2-0.6s0.7-1,0.7-1.8c0-1.6-0.9-2.4-2.7-2.4H90.8z"/>
		<path class="st3" d="M106.7,34.2c-0.7,0.8-1.6,1.2-2.9,1.2c-1.1,0-1.9-0.3-2.4-0.9c-0.6-0.6-0.8-1.5-0.8-2.8v-6.5h1.7v6.5
			c0,1.5,0.6,2.3,1.9,2.3c1.3,0,2.2-0.5,2.6-1.5v-7.3h1.7v10h-1.6L106.7,34.2z"/>
		<path class="st3" d="M112.9,35.2h-1.7V21h1.7V35.2z"/>
		<path class="st3" d="M118.4,30.6l-1.1,1.1v3.5h-1.7V21h1.7v8.6l0.9-1.1l3.1-3.3h2.1l-3.9,4.2l4.4,5.8h-2L118.4,30.6z"/>
		<path class="st3" d="M139.7,21.7v9.2c0,1.3-0.4,2.3-1.2,3.1c-0.8,0.8-1.9,1.3-3.2,1.4l-0.5,0c-1.5,0-2.7-0.4-3.5-1.2
			c-0.9-0.8-1.3-1.9-1.3-3.3v-9.2h1.8v9.1c0,1,0.3,1.7,0.8,2.3c0.5,0.5,1.3,0.8,2.3,0.8c1,0,1.8-0.3,2.3-0.8
			c0.5-0.5,0.8-1.3,0.8-2.3v-9.1H139.7z"/>
		<path class="st3" d="M150.7,30.3c0,1.5-0.3,2.8-1,3.7c-0.7,0.9-1.6,1.4-2.8,1.4c-1.2,0-2.2-0.4-2.9-1.2v4.8h-1.7V25.2h1.6l0.1,1.1
			c0.7-0.9,1.7-1.3,2.9-1.3c1.2,0,2.2,0.5,2.9,1.4s1.1,2.2,1.1,3.8V30.3z M149,30.1c0-1.1-0.2-2-0.7-2.7c-0.5-0.7-1.1-1-2-1
			c-1,0-1.8,0.5-2.3,1.4v4.8c0.5,0.9,1.3,1.4,2.4,1.4c0.8,0,1.5-0.3,2-1C148.8,32.4,149,31.4,149,30.1z"/>
		<path class="st3" d="M154.8,35.2h-1.7V21h1.7V35.2z"/>
		<path class="st3" d="M157.1,30.1c0-1,0.2-1.9,0.6-2.7c0.4-0.8,0.9-1.4,1.6-1.8c0.7-0.4,1.5-0.6,2.4-0.6c1.4,0,2.5,0.5,3.3,1.4
			s1.3,2.2,1.3,3.8v0.1c0,1-0.2,1.9-0.6,2.6c-0.4,0.8-0.9,1.4-1.6,1.8c-0.7,0.4-1.5,0.6-2.4,0.6c-1.4,0-2.5-0.5-3.3-1.4
			c-0.8-0.9-1.3-2.2-1.3-3.8V30.1z M158.8,30.3c0,1.1,0.3,2,0.8,2.7c0.5,0.7,1.2,1,2.1,1c0.9,0,1.6-0.3,2.1-1
			c0.5-0.7,0.8-1.6,0.8-2.9c0-1.1-0.3-2-0.8-2.7c-0.5-0.7-1.2-1-2.1-1c-0.8,0-1.5,0.3-2,1C159,28.1,158.8,29,158.8,30.3z"/>
		<path class="st3" d="M174.5,35.2c-0.1-0.2-0.2-0.5-0.2-1.1c-0.8,0.8-1.8,1.2-2.9,1.2c-1,0-1.8-0.3-2.4-0.8c-0.6-0.6-1-1.3-1-2.1
			c0-1,0.4-1.9,1.2-2.4s1.9-0.9,3.4-0.9h1.7v-0.8c0-0.6-0.2-1.1-0.5-1.4c-0.4-0.4-0.9-0.5-1.6-0.5c-0.6,0-1.1,0.2-1.5,0.5
			c-0.4,0.3-0.6,0.7-0.6,1.1h-1.7c0-0.5,0.2-1,0.5-1.5c0.4-0.5,0.8-0.8,1.4-1.1s1.3-0.4,2-0.4c1.2,0,2.1,0.3,2.7,0.9
			c0.7,0.6,1,1.4,1,2.4v4.6c0,0.9,0.1,1.7,0.4,2.2v0.1H174.5z M171.7,33.9c0.5,0,1-0.1,1.5-0.4s0.8-0.6,1-1.1v-2.1h-1.3
			c-2.1,0-3.2,0.6-3.2,1.8c0,0.5,0.2,1,0.5,1.3C170.7,33.7,171.1,33.9,171.7,33.9z"/>
		<path class="st3" d="M178.3,30.1c0-1.5,0.4-2.8,1.1-3.7c0.7-0.9,1.7-1.4,2.9-1.4c1.2,0,2.1,0.4,2.8,1.2V21h1.7v14.2h-1.6l-0.1-1.1
			c-0.7,0.8-1.6,1.3-2.9,1.3c-1.2,0-2.1-0.5-2.8-1.4s-1.1-2.2-1.1-3.7V30.1z M180,30.3c0,1.1,0.2,2,0.7,2.7c0.5,0.6,1.1,1,1.9,1
			c1.1,0,1.9-0.5,2.4-1.5v-4.6c-0.5-0.9-1.3-1.4-2.4-1.4c-0.8,0-1.5,0.3-2,1C180.2,28.1,180,29,180,30.3z"/>
	</g>
	<g>
		<path class="st3" d="M68.1,40.7C68.1,40.7,68.1,40.7,68.1,40.7l-26.2-0.4c-0.1,0-0.3,0-0.4,0c-2.5-0.5-6.7-2.6-6.2-7.6
			c-0.1-2.1,1.1-5.8,5.6-6.6c0.2-1.3,1.2-3.7,5-4c0-1.6,0.4-4.1,2.3-6c1.6-1.7,4-2.6,7.1-2.7l0,0c0,0,0.1,0,0.1,0
			c4.8-0.4,7.9,3,9.6,6c2,0.2,7.1,1.4,8.1,7.9c1,1.2,2.7,4.4,1.9,7.5c-0.4,1.8-1.9,4.2-6.1,5.7C68.7,40.6,68.4,40.7,68.1,40.7z
			 M42,37.1l26,0.4c2.3-0.8,3.6-2,3.9-3.4c0.5-2-0.9-4.3-1.3-4.7C70.3,29,70.1,28.5,70,28c-0.6-4.5-3.7-5.3-5.5-5.4
			c-0.9-0.1-1.7-0.5-2.1-1.3c-1.8-3.3-4.1-4.9-6.7-4.7c-0.1,0-0.2,0-0.3,0c-2.2,0-3.9,0.6-4.9,1.7c-1.3,1.4-1.4,3.3-1.4,4.3
			c0,0.7-0.2,1.4-0.7,1.9c-0.5,0.5-1.1,0.8-1.8,0.8c-2.4,0-2.5,1.1-2.5,1.6c-0.1,1.2-1,2.2-2.3,2.3c-3.2,0.4-3.3,2.7-3.3,3.4
			c0,0.1,0,0.2,0,0.4C38.1,36.1,41,36.9,42,37.1z M41.9,37.1L41.9,37.1C41.9,37.1,41.9,37.1,41.9,37.1z M35.3,32.7
			C35.3,32.7,35.3,32.7,35.3,32.7C35.3,32.7,35.3,32.7,35.3,32.7z"/>
		<rect x="54.4" y="25.5" class="st3" width="1.8" height="9.3"/>
		<rect x="52" y="23.3" transform="matrix(0.564 0.8258 -0.8258 0.564 45.4282 -31.8268)" class="st3" width="1.8" height="7.5"/>
		<rect x="57.3" y="23.1" transform="matrix(-0.5 0.866 -0.866 -0.5 110.6269 -10.0591)" class="st3" width="1.8" height="7.5"/>
	</g>
</g>
</svg>
