<?xml version="1.0" encoding="utf-8"?>
<!-- Generator: Adobe Illustrator 22.0.0, SVG Export Plug-In . SVG Version: 6.00 Build 0)  -->
<svg version="1.1" id="Layer_1" xmlns="http://www.w3.org/2000/svg" xmlns:xlink="http://www.w3.org/1999/xlink" x="0px" y="0px"
	 viewBox="0 0 216 216" style="enable-background:new 0 0 216 216;" xml:space="preserve">
<path d="M183.2,26H157V7c0-3.3-2.7-6-6-6s-6,2.7-6,6v19H73V8c0-3.3-2.7-6-6-6s-6,2.7-6,6v18H35.8C25.5,26,17,34.5,17,44.8v147.3
	c0,10.3,8.5,18.8,18.8,18.8h147.3c10.4,0,18.8-8.5,18.8-18.8V44.8C202,34.5,193.5,26,183.2,26z M63,197H30v-33h33V197z M63,157H30
	v-33h33V157z M63,114H30V81h33V114z M55,43.5c0-4.5,2.4-8.5,6-10.7V43c0,3.3,2.7,6,6,6s6-2.7,6-6V32.3c4.1,2,7,6.3,7,11.2
	C80,50.4,74.4,56,67.5,56S55,50.4,55,43.5z M105,197H72v-33h33V197z M105,157H72v-33h33V157z M105,114H72V81h33V114z M147,197h-33
	v-33h33V197z M147,157h-33v-33h33V157z M147,114h-33V81h33V114z M139,43.5c0-4.5,2.4-8.5,6-10.7V42c0,3.3,2.7,6,6,6s6-2.7,6-6v-9.7
	c4.1,2,7,6.3,7,11.2c0,6.9-5.6,12.5-12.5,12.5S139,50.4,139,43.5z M189,197h-33v-33h33V197z M189,157h-33v-33h33V157z M189,114h-33
	V81h33V114z"/>
</svg>
