<?xml version="1.0" encoding="utf-8"?>
<!-- Generator: Adobe Illustrator 22.0.0, SVG Export Plug-In . SVG Version: 6.00 Build 0)  -->
<svg version="1.1" id="Layer_1" xmlns="http://www.w3.org/2000/svg" xmlns:xlink="http://www.w3.org/1999/xlink" x="0px" y="0px"
	 viewBox="0 0 216 216" style="enable-background:new 0 0 216 216;" xml:space="preserve">
<style type="text/css">
	.st0{fill:#575757;}
</style>
<path class="st0" d="M185.7,51L138.8,5.7L138.6,6H43.7C37.3,6,32,11.3,32,17.7v181.6c0,6.5,5.3,11.7,11.7,11.7h130.6
	c6.5,0,11.7-5.3,11.7-11.7V51H185.7z M177,199.3c0,1.5-1.2,2.7-2.7,2.7H43.7c-1.5,0-2.7-1.2-2.7-2.7V17.7c0-1.5,1.2-2.7,2.7-2.7
	h83.4c0,0.3-0.1,0.7-0.1,1v32c0,8.8,7.2,16,16,16h34V199.3z M177,56h-34c-4.4,0-8-3.6-8-8V16c0-0.3,0-0.7,0.1-1h0.4L177,55.1V56z
	 M57,121h18v-10H57V121z M85,121h75v-10H85V121z M57,145h18v-10H57V145z M85,145h75v-10H85V145z M57,169h18v-10H57V169z M85,169h75
	v-10H85V169z M57,193h18v-10H57V193z M85,193h75v-10H85V193z M87.4,95.1l6.5,6.5l14.4-14.4l15.9,12.7l5.7-7.2l-15.1-12.1l13.7-13.7
	l-6.5-6.5l-14.4,14.4L91.7,62.1L86,69.3l15.1,12.1L87.4,95.1z"/>
</svg>
