<?xml version="1.0" encoding="utf-8"?>
<!-- Generator: Adobe Illustrator 22.0.0, SVG Export Plug-In . SVG Version: 6.00 Build 0)  -->
<svg version="1.1" id="Layer_1" xmlns="http://www.w3.org/2000/svg" xmlns:xlink="http://www.w3.org/1999/xlink" x="0px" y="0px"
	 viewBox="0 0 216 216" style="enable-background:new 0 0 216 216;" xml:space="preserve">
<style type="text/css">
	.st0{fill:#575757;}
</style>
<path class="st0" d="M173,4H17v186h156V4z M162,179H28V15h134V179z M182,25v11h4v164H52v-5H41v16h156V25H182z M70,27H50v20h20V27z
	 M144,27H85v20h59V27z M144,58H50v10h94V58z M144,76H50v10h94V76z M144,96H50v10h94V96z M129.5,128c-2.2,0-4.3,0.8-5.9,2.1l-9.7-5.6
	c0-0.3,0.1-0.7,0.1-1c0-5.2-4.3-9.5-9.5-9.5s-9.5,4.3-9.5,9.5c0,2.1,0.7,4.1,1.9,5.7L86.3,146c-0.3,0-0.5,0-0.8,0
	c-2,0-3.8,0.6-5.4,1.7l-6.3-6.3c0.1-0.6,0.2-1.2,0.2-1.9c0-5.2-4.3-9.5-9.5-9.5s-9.5,4.3-9.5,9.5s4.3,9.5,9.5,9.5
	c2,0,3.8-0.6,5.4-1.7l6.3,6.3c-0.1,0.6-0.2,1.2-0.2,1.9c0,5.2,4.3,9.5,9.5,9.5s9.5-4.3,9.5-9.5c0-2.4-0.9-4.6-2.4-6.3l10.3-16.3
	c0.5,0.1,1.1,0.1,1.6,0.1c2.4,0,4.5-0.9,6.2-2.3l9.4,5.4c-0.1,0.4-0.1,0.9-0.1,1.4c0,5.2,4.3,9.5,9.5,9.5s9.5-4.3,9.5-9.5
	S134.7,128,129.5,128z"/>
</svg>
