<?xml version="1.0" encoding="utf-8"?>
<!-- Generator: Adobe Illustrator 22.0.0, SVG Export Plug-In . SVG Version: 6.00 Build 0)  -->
<svg version="1.1" id="Layer_1" xmlns="http://www.w3.org/2000/svg" xmlns:xlink="http://www.w3.org/1999/xlink" x="0px" y="0px"
	 viewBox="0 0 216 216" style="enable-background:new 0 0 216 216;" xml:space="preserve">
<style type="text/css">
	.st0{fill:#575757;}
</style>
<path class="st0" d="M156.1,37.8l-6.3,12.7l54.9,1.1L179.3,3l-7.4,12.7c0,0-87.6-43.3-156.2,39.1C27.3,46.3,82.2-4.4,156.1,37.8z
	 M57.9,177.2l6.3-12.7l-54.9-1.1L34.7,212l7.4-12.7c0,0,87.6,43.3,156.2-39.1C186.7,168.7,131.8,219.4,57.9,177.2z M96.5,91.4
	c0,1.4,0.6,2.8,1.7,4c1.1,1.2,2.8,2.2,5.1,3V84.3c-2.1,0.5-3.7,1.5-5,2.8C97.1,88.4,96.5,89.8,96.5,91.4z M110.9,111.7v15.8
	c2.6-0.4,4.8-1.3,6.4-2.8c1.7-1.5,2.5-3.3,2.5-5.3c0-1.8-0.7-3.4-2.1-4.7C116.4,113.4,114.1,112.4,110.9,111.7z M106.5,51
	C75.3,51,50,76.3,50,107.5S75.3,164,106.5,164s56.5-25.3,56.5-56.5S137.7,51,106.5,51z M127,130.4c-3.9,3.4-9.2,5.4-16.1,6.2v7.6
	h-7.7v-7.4c-6.1-0.6-11-2.3-14.8-5.2c-3.8-2.9-6.2-7.1-7.3-12.4l13.8-1.1c0.6,2.2,1.6,4,3.2,5.6c1.6,1.6,3.3,2.7,5.2,3.4v-17
	c-6.9-1.5-12-3.8-15.2-6.9c-3.2-3.1-4.8-6.8-4.8-11.2c0-4.4,1.8-8.2,5.5-11.2c3.6-3,8.5-4.8,14.5-5.2v-4h7.7v4
	c5.6,0.5,10,2,13.4,4.4c3.3,2.4,5.4,5.7,6.3,9.7L117.3,91c-0.8-3.2-2.9-5.4-6.3-6.5v15.9c8.5,1.8,14.2,4,17.3,6.8
	c3.1,2.8,4.6,6.4,4.6,10.8C132.8,122.9,130.9,127,127,130.4z"/>
</svg>
