<?xml version="1.0" encoding="utf-8"?>
<!-- Generator: Adobe Illustrator 22.0.0, SVG Export Plug-In . SVG Version: 6.00 Build 0)  -->
<svg version="1.1" id="Layer_1" xmlns="http://www.w3.org/2000/svg" xmlns:xlink="http://www.w3.org/1999/xlink" x="0px" y="0px"
	 viewBox="0 0 216 216" style="enable-background:new 0 0 216 216;" xml:space="preserve">
<style type="text/css">
	.st0{fill:#575757;}
</style>
<path class="st0" d="M24,186.5v-165c0-3.9,3.1-7,7-7h121.5c3.9,0,7,3.1,7,7V110h10V21.5c0-9.4-7.6-17-17-17H31c-9.4,0-17,7.6-17,17
	v165c0,9.4,7.6,17,17,17h79v-10H31C27.1,193.5,24,190.4,24,186.5z M135.5,56h-82C51,56,49,58,49,60.5c0,2.5,2,4.5,4.5,4.5h82
	c2.5,0,4.5-2,4.5-4.5C140,58,138,56,135.5,56z M140,104.5c0-2.5-2-4.5-4.5-4.5h-82c-2.5,0-4.5,2-4.5,4.5c0,2.5,2,4.5,4.5,4.5h82
	C138,109,140,107,140,104.5z M53.5,142c-2.5,0-4.5,2-4.5,4.5c0,2.5,2,4.5,4.5,4.5h45c2.5,0,4.5-2,4.5-4.5c0-2.5-2-4.5-4.5-4.5H53.5z
	 M204.2,201.2l-14.8-14.8c-1.3-1.3-3.1-1.9-4.9-1.7c5-6.1,8-13.9,8-22.4c0-19.4-15.8-35.3-35.3-35.3S122,142.8,122,162.3
	s15.8,35.3,35.3,35.3c8.3,0,15.9-2.9,21.9-7.7c-0.2,1.8,0.3,3.6,1.7,5l14.8,14.8c2.3,2.3,6.2,2.3,8.5,0
	C206.5,207.3,206.5,203.5,204.2,201.2z M157.3,185.5c-12.8,0-23.3-10.4-23.3-23.3s10.4-23.3,23.3-23.3s23.3,10.4,23.3,23.3
	S170.1,185.5,157.3,185.5z"/>
</svg>
