<?xml version="1.0" encoding="utf-8"?>
<!-- Generator: Adobe Illustrator 22.0.0, SVG Export Plug-In . SVG Version: 6.00 Build 0)  -->
<svg version="1.1" id="Layer_1" xmlns="http://www.w3.org/2000/svg" xmlns:xlink="http://www.w3.org/1999/xlink" x="0px" y="0px"
	 viewBox="0 0 216 216" style="enable-background:new 0 0 216 216;" xml:space="preserve">
<style type="text/css">
	.st0{fill:#575757;}
</style>
<rect x="37" y="3" class="st0" width="68" height="7"/>
<path class="st0" d="M83.9,10H164c11,0,20,8.9,20,20v98.2c0,1,0.8,1.9,1.9,1.9h3.3c1,0,1.9-0.8,1.9-1.9V30c0-14.9-12.1-27-27-27
	H83.9c-1,0-1.9,0.8-1.9,1.9v3.3C82,9.2,82.8,10,83.9,10z M137.1,204H82c-11,0-20-8.9-20-20v-36.2c0-1-0.8-1.9-1.9-1.9h-3.3
	c-1,0-1.9,0.8-1.9,1.9V184c0,14.9,12.1,27,27,27h55.1c1,0,1.9-0.8,1.9-1.9v-3.3C139,204.8,138.2,204,137.1,204z M55,50.1
	c0,1,0.8,1.9,1.9,1.9h3.3c1,0,1.9-0.8,1.9-1.9V24C59.1,11.9,49,3,36.9,3c-11.2,0-20.7,7.7-24.3,18.4c0,0,0,0,0,0
	c-0.3,0.9-0.4,1.9-0.5,2.6H12v22h43V50.1z M19,39V24h0c2.6-8.2,9.7-14,18-14c8.3,0,15.4,5.8,18,14H55v15H19z M168,32H78v5h90V32z
	 M168,47H78v5h90V47z M168,61h-67v5h67V61z M168,82v-5h-54v5H168z M114,96h26v-5h-26V96z M135,149H94v5h41V149z M135,162H94v5h41
	V162z M94,179h25v-5H94V179z M78,179h8v-5h-8V179z M86,162h-8v5h8V162z M86,149h-8v5h8V149z M201.6,135.5h-52.1
	c-2.7,0-4.9,2.2-4.9,4.9v66.1c0,2.7,2.2,4.9,4.9,4.9h52.1c2.7,0,4.9-2.2,4.9-4.9v-66.1C206.5,137.7,204.3,135.5,201.6,135.5z
	 M199.5,204.5h-48V160h48V204.5z M199.5,153h-48v-10.5h48V153z M164,167h-8v5h8V167z M164,179h-8v5h8V179z M164,192h-8v5h8V192z
	 M179,167h-8v5h8V167z M179,179h-8v5h8V179z M179,192h-8v5h8V192z M195,167h-8v5h8V167z M195,179h-8v5h8V179z M195,192h-8v5h8V192z
	 M69,114.5c8.5,0,15.5-7,15.5-15.5s-7-15.5-15.5-15.5s-15.5,7-15.5,15.5S60.5,114.5,69,114.5z M69,89.5c5.2,0,9.5,4.3,9.5,9.5
	s-4.3,9.5-9.5,9.5s-9.5-4.3-9.5-9.5S63.8,89.5,69,89.5z M59.3,139.3c1.7,0,3.4-0.9,4.3-2.5l4.1-6.9h2.8l4.4,5.9
	c1.1,1.4,2.8,2.2,4.5,2l6.9-0.7c2.7-0.3,4.7-2.6,4.5-5.4l-0.8-10.7l1.9-1.9l8.9,1.5c2.3,0.4,4.6-0.9,5.5-3.1l2.8-6.9
	c0.9-2.2,0.1-4.8-2-6.1L99,99.4v-1.7l8.2-5.2c2-1.3,2.9-3.9,2-6.1l-2.7-6.7c-1-2.4-3.5-3.7-6-3l-7.3,2l-2-2.5l0.7-8.2
	c0.2-2.3-1.2-4.5-3.4-5.2l-8.9-3c-2.3-0.8-4.8,0.2-6,2.3l-3.3,6H68l-2.5-6.2c-1-2.5-3.9-3.8-6.5-2.8l-9.5,3.7
	c-2.3,0.9-3.6,3.2-3.1,5.6l1.4,7.8l-1.7,1.7l-8.6-2.1c-2.5-0.6-5.1,0.7-6,3.2l-2.8,7.8c-0.8,2.2,0,4.6,1.9,5.9l6.6,4.4l0.5,3.6
	l-7.6,4.2c-2.2,1.2-3.2,3.8-2.3,6.1l2.8,7.8c0.8,2.3,3.1,3.6,5.5,3.3l10.1-1.6l1.5,1.1l-1.4,7.7c-0.4,2.1,0.6,4.3,2.5,5.3l8,4.4
	C57.6,139.1,58.4,139.3,59.3,139.3z M51.8,116.8l-2.3-1.7c-1.1-0.8-2.5-1.2-3.8-0.9l-9.7,1.5l-2.3-6.3l7.5-4.1
	c1.8-1,2.9-3.1,2.6-5.1l-0.7-4.7c-0.2-1.4-1-2.7-2.2-3.5l-6.3-4.2l2.3-6.2l8.3,2.1c1.7,0.4,3.5-0.1,4.8-1.3l2.4-2.4
	c1.2-1.2,1.7-2.8,1.4-4.5l-1.4-7.5l7.9-3l2.4,6c0.8,1.9,2.6,3.2,4.7,3.2h3.4c1.8,0,3.5-1,4.4-2.6l3.2-5.8l7.4,2.5l-0.7,7.8
	c-0.1,1.3,0.3,2.6,1.1,3.6l2.6,3.3c1.3,1.6,3.3,2.2,5.3,1.7l7.1-1.9l2.1,5.2l-8,5.1c-1.5,0.9-2.3,2.5-2.3,4.3v2.8
	c0,1.7,0.9,3.3,2.3,4.3l8,5.1l-2.2,5.4l-8.6-1.4c-1.6-0.3-3.2,0.3-4.4,1.4l-2.6,2.6c-1,1-1.6,2.5-1.5,3.9l0.7,10.2l-5.4,0.5L75,126
	c-0.9-1.3-2.5-2-4-2h-3.8c-1.8,0-3.4,0.9-4.3,2.4l-3.9,6.5l-6.6-3.6l1.4-7.6C54.1,119.9,53.3,118,51.8,116.8z"/>
</svg>
