<?xml version="1.0" encoding="utf-8"?>
<!-- Generator: Adobe Illustrator 22.0.0, SVG Export Plug-In . SVG Version: 6.00 Build 0)  -->
<svg version="1.1" id="Layer_1" xmlns="http://www.w3.org/2000/svg" xmlns:xlink="http://www.w3.org/1999/xlink" x="0px" y="0px"
	 viewBox="0 0 216 216" style="enable-background:new 0 0 216 216;" xml:space="preserve">
<style type="text/css">
	.st0{fill:#575757;}
</style>
<path class="st0" d="M193.5,38.5c0,0-33-39-94-33c0,7,1,12,1,12s51-8,82,28c-12,7-12,8-12,8l32,10l5-33L193.5,38.5z M35.5,171.5
	L47,161l-35-3l4,34c0,0,0,0,10-12c38,36,79,34,79,34s-0.5-3.5-0.5-11.5C55.5,200.5,35.5,171.5,35.5,171.5z M145.4,134.9v-14.8
	c3,1.1,4.9,3.1,5.6,6l11.8-1.2c-0.8-3.8-2.7-6.8-5.6-9.1s-6.9-3.6-11.8-4.1V108h-6.8v3.7c-5.4,0.4-9.7,2-12.9,4.9s-4.8,6.3-4.8,10.4
	c0,4.1,1.4,7.6,4.3,10.4c2.9,2.9,7.3,5,13.4,6.4v15.8c-1.7-0.7-3.2-1.7-4.6-3.2c-1.4-1.5-2.3-3.2-2.8-5.2l-12.2,1.1
	c0.9,5,3.1,8.8,6.5,11.5c3.4,2.7,7.7,4.3,13.1,4.9v6.9h6.8v-7.1c6.1-0.7,10.8-2.6,14.2-5.7s5.1-7,5.1-11.5c0-4.1-1.4-7.4-4.1-10
	C158,138.6,152.9,136.5,145.4,134.9z M138.6,133.1c-2-0.7-3.5-1.6-4.5-2.8c-1-1.1-1.5-2.4-1.5-3.7c0-1.5,0.5-2.8,1.6-4
	c1.1-1.2,2.6-2.1,4.4-2.6V133.1z M151.1,157.6c-1.5,1.4-3.4,2.3-5.7,2.6v-14.7c2.8,0.7,4.8,1.6,6.1,2.8c1.2,1.2,1.8,2.7,1.8,4.4
	C153.3,154.5,152.6,156.2,151.1,157.6z M170.5,89.5c0,0,0-18,0-28C168.5,38.5,115,38,115,38c-52-1-60,20-60,20v16
	C10.5,76.5,9.5,96.5,9.5,96.5s0,20,0,26c0,17,42,23,42,23s0,2,0,5c6,20,35,21,40,22c20,27,44,26,50,26c56-6,59-52,58-58
	C200.5,106.5,170.5,89.5,170.5,89.5z M52,109c-17-2-40-9-26-17c3-2,10-5,29-7c0,0-3,12,19,20C74,106,69,111,52,109z M67,62
	c0-6.6,20.6-12,46-12s46,5.4,46,12s-20.6,12-46,12S67,68.6,67,62z M140.5,187c-25.7,0-46.5-20.8-46.5-46.5S114.8,94,140.5,94
	s46.5,20.8,46.5,46.5S166.2,187,140.5,187z"/>
</svg>
