<?xml version="1.0" encoding="utf-8"?>
<!-- Generator: Adobe Illustrator 22.0.0, SVG Export Plug-In . SVG Version: 6.00 Build 0)  -->
<svg version="1.1" id="Layer_1" xmlns="http://www.w3.org/2000/svg" xmlns:xlink="http://www.w3.org/1999/xlink" x="0px" y="0px"
	 viewBox="0 0 216 216" style="enable-background:new 0 0 216 216;" xml:space="preserve">
<style type="text/css">
	.st0{fill:#575757;}
</style>
<path class="st0" d="M205.5,114.8h-12.1c-1.9,0-3.5,1.6-3.5,3.5v2.7c-2.7-0.6-27.9-5.9-30.8-5.9c-3,0-39,7-39,7l-33,20h0.3
	c-0.9,1-2.8,3.8-3.1,9.5c-6.2,6.2-10,14.7-10,24c0,18.8,15.3,34,34,34s34-15.3,34-34c0-2.1-0.2-4.1-0.6-6.1
	c5.6,1.4,10.3,2.6,10.3,2.6h21l16.8-8.4v8.2c0,1.9,1.6,3.5,3.5,3.5h12.1c1.9,0,3.5-1.6,3.5-3.5v-53.6
	C209,116.3,207.4,114.8,205.5,114.8z M108.5,202.5c-14.9,0-27-12.1-27-27s12.1-27,27-27c3.5,0,6.8,0.7,9.8,1.9
	c-0.1,0.5-0.1,1.1-0.1,1.6c0,3,2,12,10,14c1.7,0.4,3.8,1,6,1.5c0.8,2.5,1.2,5.2,1.2,8C135.5,190.4,123.4,202.5,108.5,202.5z
	 M190,156.6c-6.1,3-12.2,5.9-18.3,8.9h-19l-23-6c0,0-5-2-5-8c0-1,2-6,7-7h16.5V139h-18c0,0-5.8,0.5-9.4,4.8c-3.8-1.5-8-2.3-12.4-2.3
	c-4.1,0-8,0.7-11.6,2l0,0l3.2-2l23.1-13.5l35-6l31.8,6V156.6z M203.5,169.8h-8v-49.5h8V169.8z M184,108c4.7,0,8.5-3.8,8.5-8.5V42
	c0-4.7-3.8-8.5-8.5-8.5h-55.8L96,14c0,0-36-7-39-7c-2.8,0-28,5.4-30.8,5.9v-2.7c0-1.9-1.6-3.5-3.5-3.5H10.7c-1.9,0-3.5,1.6-3.5,3.5
	v53.6c0,1.9,1.6,3.5,3.5,3.5h12.1c1.9,0,3.5-1.6,3.5-3.5v-8.2L43,64h21c0,0,2.7-0.7,6.5-1.6v37.1c0,4.7,3.8,8.5,8.5,8.5H184z
	 M20.8,61.8h-8V12.3h8V61.8z M185.5,61h-108v-0.4c3.8-0.9,7.7-1.9,10.5-2.6c2.7-0.7,4.8-2.2,6.3-4h91.2V61z M184,40.5
	c0.8,0,1.5,0.7,1.5,1.5v5H97.6c0.3-1.2,0.4-2.3,0.4-3c0-1.3-0.1-2.5-0.4-3.5H184z M63.5,57.5h-19c-6.1-3-12.2-5.9-18.3-8.9V20L58,14
	l35,6l23.1,13.5H92.8C89.5,31.3,86,31,86,31H68v5.5h16.5c5,1,7,6,7,7c0,6-5,8-5,8L63.5,57.5z M77.5,99.5V67h108v32.5
	c0,0.9-0.7,1.5-1.5,1.5H79C78.2,101,77.5,100.3,77.5,99.5z M98,74H84v7h14V74z M108,87H84v7h24V87z M159,94c1.8,0,3.5-0.5,5-1.4
	c1.5,0.9,3.2,1.4,5,1.4c5.5,0,10-4.5,10-10c0-5.5-4.5-10-10-10c-1.8,0-3.5,0.5-5,1.3c-1.5-0.8-3.2-1.3-5-1.3c-5.5,0-10,4.5-10,10
	C149,89.5,153.5,94,159,94z M158.5,81c1.3,0,2.5,0.8,3.1,1.8l0,0c0,0,1.6,0.8,3.8,0.1c0.6-1.1,1.8-1.9,3.1-1.9
	c1.9,0,3.5,1.6,3.5,3.5s-1.6,3.5-3.5,3.5c-1.5,0-2.8-0.9-3.3-2.3c-0.7-0.2-2-0.3-3.5,0c-0.5,1.3-1.8,2.2-3.3,2.2
	c-1.9,0-3.5-1.6-3.5-3.5S156.6,81,158.5,81z M118.6,173.8c-1.5-1.4-4.6-2.6-9.2-3.9v-6.5c0.8,0.4,1.3,0.8,1.7,1.3
	c0.3,0.4,0.7,1.2,1.1,2.2l8.4-1.3c-0.5-2.4-1.7-4.3-3.5-5.7c-1.8-1.4-4.4-2.2-7.7-2.4v-2.2h-3.3v2.2c-3.7,0.2-6.5,1.2-8.4,3
	c-1.9,1.8-2.8,4-2.8,6.7c0,2,0.5,3.6,1.4,5c0.9,1.4,2,2.4,3.3,3c1.3,0.6,3.4,1.3,6.5,2.2v8c-1.1-0.5-1.8-1.1-2.3-1.8
	c-0.5-0.7-0.8-1.7-1.1-3.2l-9.1,1.1c0.3,1.5,0.7,2.8,1.2,3.8c0.5,1.1,1.3,2,2.3,3s2.2,1.6,3.6,2.2c1.4,0.5,3.2,0.9,5.4,1.1v4.3h3.3
	v-4.3c1.8-0.1,3.4-0.3,4.7-0.7c1.3-0.4,2.5-1.1,3.6-2c1.1-0.9,2.1-2.1,2.8-3.4c0.7-1.4,1.1-2.9,1.1-4.5
	C121.7,177.9,120.7,175.6,118.6,173.8z M106.2,169.1c-1-0.3-1.6-0.7-2-1.2c-0.4-0.5-0.6-1.1-0.6-1.7c0-0.6,0.2-1.2,0.6-1.7
	c0.4-0.5,1-0.9,2-1.2V169.1z M112.3,184.1c-0.6,0.7-1.5,1.1-2.8,1.4v-7.2c1.5,0.5,2.4,1.1,2.9,1.7c0.5,0.6,0.8,1.2,0.8,2
	C113.2,182.7,112.9,183.4,112.3,184.1z"/>
</svg>
