<?xml version="1.0" encoding="utf-8"?>
<!-- Generator: Adobe Illustrator 22.0.0, SVG Export Plug-In . SVG Version: 6.00 Build 0)  -->
<svg version="1.1" id="Layer_1" xmlns="http://www.w3.org/2000/svg" xmlns:xlink="http://www.w3.org/1999/xlink" x="0px" y="0px"
	 viewBox="0 0 216 216" style="enable-background:new 0 0 216 216;" xml:space="preserve">
<style type="text/css">
	.st0{fill:#60379C;}
	.st1{fill:#9579BD;}
	.st2{fill:#FFFFFF;}
</style>
<circle class="st0" cx="108.5" cy="108.5" r="102.5"/>
<path class="st1" d="M109,207.5c-54.9,0-99.5-44.6-99.5-99.5S54.1,8.5,109,8.5s99.5,44.6,99.5,99.5S163.9,207.5,109,207.5z
	 M109,13.5c-52.1,0-94.5,42.4-94.5,94.5s42.4,94.5,94.5,94.5s94.5-42.4,94.5-94.5S161.1,13.5,109,13.5z"/>
<path class="st2" d="M64,71H53c-2.8,0-5-2.3-5-5V55c0-2.8,2.3-5,5-5H64c2.8,0,5,2.3,5,5V66C69,68.7,66.7,71,64,71z"/>
<path class="st2" d="M164,71H86c-2.8,0-5-2.3-5-5V55c0-2.8,2.3-5,5-5H164c2.8,0,5,2.3,5,5V66C169,68.7,166.7,71,164,71z"/>
<path class="st2" d="M64,119H53c-2.8,0-5-2.3-5-5V103c0-2.8,2.3-5,5-5H64c2.8,0,5,2.3,5,5V114C69,116.7,66.7,119,64,119z"/>
<path class="st2" d="M164,119H86c-2.8,0-5-2.3-5-5V103c0-2.8,2.3-5,5-5H164c2.8,0,5,2.3,5,5V114C169,116.7,166.7,119,164,119z"/>
<path class="st2" d="M64,165H53c-2.8,0-5-2.3-5-5V149c0-2.8,2.3-5,5-5H64c2.8,0,5,2.3,5,5V160C69,162.7,66.7,165,64,165z"/>
<path class="st2" d="M164,165H86c-2.8,0-5-2.3-5-5V149c0-2.8,2.3-5,5-5H164c2.8,0,5,2.3,5,5V160C169,162.7,166.7,165,164,165z"/>
</svg>
