<?xml version="1.0" encoding="utf-8"?>
<!-- Generator: Adobe Illustrator 22.0.0, SVG Export Plug-In . SVG Version: 6.00 Build 0)  -->
<svg version="1.1" id="Layer_1" xmlns="http://www.w3.org/2000/svg" xmlns:xlink="http://www.w3.org/1999/xlink" x="0px" y="0px"
	 viewBox="0 0 216 216" style="enable-background:new 0 0 216 216;" xml:space="preserve">
<style type="text/css">
	.st0{fill:#575757;}
</style>
<path class="st0" d="M203.9,69.4L191,74.8c4.2,10.4,6.5,21.8,6.5,33.8c0,50.2-40.8,91-91,91s-91-40.8-91-91s40.8-91,91-91
	c15.7,0,30.5,4,43.4,11L140,42l45,8L168,4l-9.7,13.2c-15.3-8.7-33-13.7-51.8-13.7c-57.9,0-105,47.1-105,105c0,57.9,47.1,105,105,105
	s105-47.1,105-105C211.5,94.7,208.8,81.5,203.9,69.4z M107,56.5c-14.6,0-26.5,11.9-26.5,26.5v13c-6.4,0.3-11.5,5.5-11.5,12v41
	c0,6.6,5.4,12,12,12h52c6.6,0,12-5.4,12-12v-41c0-6.4-5.1-11.7-11.5-12V83C133.5,68.4,121.6,56.5,107,56.5z M113,131.7V148h-11
	v-16.3c-4.1-2-7-6.3-7-11.2c0-6.9,5.6-12.5,12.5-12.5s12.5,5.6,12.5,12.5C120,125.4,117.1,129.7,113,131.7z M120.5,96h-27V83
	c0-7.4,6.1-13.5,13.5-13.5s13.5,6.1,13.5,13.5V96z"/>
</svg>
