<?xml version="1.0" encoding="utf-8"?>
<!-- Generator: Adobe Illustrator 22.0.0, SVG Export Plug-In . SVG Version: 6.00 Build 0)  -->
<svg version="1.1" id="Layer_1" xmlns="http://www.w3.org/2000/svg" xmlns:xlink="http://www.w3.org/1999/xlink" x="0px" y="0px"
	 viewBox="0 0 216 216" style="enable-background:new 0 0 216 216;" xml:space="preserve">
<path d="M108.5,9C53.6,9,9,53.6,9,108.5S53.6,208,108.5,208s99.5-44.6,99.5-99.5S163.4,9,108.5,9z M108.5,189
	C64.1,189,28,152.9,28,108.5S64.1,28,108.5,28S189,64.1,189,108.5S152.9,189,108.5,189z M147.7,118.4l-31.2-15.3V54
	c0-4.7-3.8-8.5-8.5-8.5s-8.5,3.8-8.5,8.5v52.5c-0.8,3.7,1,7.7,4.5,9.5l36.2,17.8c4.2,2.1,9.3,0.3,11.4-3.9S151.9,120.5,147.7,118.4z
	"/>
</svg>
