<?xml version="1.0" encoding="utf-8"?>
<!-- Generator: Adobe Illustrator 22.0.0, SVG Export Plug-In . SVG Version: 6.00 Build 0)  -->
<svg version="1.1" id="Layer_1" xmlns="http://www.w3.org/2000/svg" xmlns:xlink="http://www.w3.org/1999/xlink" x="0px" y="0px"
	 viewBox="0 0 216 216" style="enable-background:new 0 0 216 216;" xml:space="preserve">
<style type="text/css">
	.st0{fill:#FF0000;}
</style>
<path class="st0" d="M108.5,5.5c-57.3,0-104,46.7-104,104s46.7,104,104,104s104-46.7,104-104S165.8,5.5,108.5,5.5z M108.5,207.5
	c-54,0-98-44-98-98c0-54,44-98,98-98c54,0,98,44,98,98C206.5,163.5,162.5,207.5,108.5,207.5z M151.8,60.4l-42.1,37.4L69.9,58
	L57.8,70.1l39.1,39.1L55.6,146L67,158.8l42.1-37.4l39.8,39.8L161,149l-39.1-39.1l41.3-36.7L151.8,60.4z"/>
</svg>
