<?xml version="1.0" encoding="utf-8"?>
<!-- Generator: Adobe Illustrator 22.0.0, SVG Export Plug-In . SVG Version: 6.00 Build 0)  -->
<svg version="1.1" id="Layer_1" xmlns="http://www.w3.org/2000/svg" xmlns:xlink="http://www.w3.org/1999/xlink" x="0px" y="0px"
	 viewBox="0 0 216 216" style="enable-background:new 0 0 216 216;" xml:space="preserve">
<style type="text/css">
	.st0{fill:#575757;}
</style>
<path class="st0" d="M119,209.8v1.2h1.4C119.9,210.6,119.5,210.2,119,209.8z M103,6L45,40v161H34v10h54v-32h15.3
	c-0.2-1.6-0.3-3.3-0.3-5c0-2,0.1-4,0.4-6H87v-21h24.3c4.9-7.2,11.7-13,19.7-16.7V115h21v11c3.1,0.1,6.1,0.4,9,1V40L103,6z M76,200
	H55v-21h21V200z M76,168H55v-21h21V168z M76,136H55v-21h21V136z M76,104H55V83h21V104z M76,72H55V51h21V72z M118,136H87v-21h31V136z
	 M118,104H87V83h31V104z M119,72H88V51h31V72z M152,104h-21V83h21V104z M152,72h-21V51h21V72z"/>
<circle class="st0" cx="151.5" cy="173.5" r="11.5"/>
<path class="st0" d="M151.5,137c-20.7,0-37.5,16.8-37.5,37.5c0,20.7,16.8,37.5,37.5,37.5s37.5-16.8,37.5-37.5
	C189,153.8,172.2,137,151.5,137z M176,180c-0.2,0.9-0.5,1.9-1,3c-0.9,2.1-2,3.8-3,5c2,2,5,5,5,5l-6,7l-5-5c0,0-7,4-9,4c0,4,0,7,0,7
	h-10v-7c0,0-8-2-10-4c-2,2-5,5-5,5l-7-7l5-5c0,0-3-6-3-9c-2,0-8,0-8,0v-9h8c0,0,0-6,3-10c-2-2-5-5-5-5l7-7l6,5c0,0,3-3,9-4v-7h10v7
	c1,0.1,2.4,0.3,4,1c2,0.9,3.3,2.2,4,3c1-1,6-6,6-6l7,8l-6,5c0,0,3,4,4,9v1h7v10H176z"/>
</svg>
