<?xml version="1.0" encoding="utf-8"?>
<!-- Generator: Adobe Illustrator 22.0.0, SVG Export Plug-In . SVG Version: 6.00 Build 0)  -->
<svg version="1.1" id="Layer_1" xmlns="http://www.w3.org/2000/svg" xmlns:xlink="http://www.w3.org/1999/xlink" x="0px" y="0px"
	 viewBox="0 0 216 216" style="enable-background:new 0 0 216 216;" xml:space="preserve">
<style type="text/css">
	.st0{fill:#575757;}
</style>
<path class="st0" d="M185.5,19H165v-2.4c0-3.6-3-6.6-6.6-6.6h-20c-3-4.8-8.3-8-14.4-8s-11.4,3.2-14.4,8h-20C86,10,83,13,83,16.6V19
	H62.5C53.4,19,46,26.4,46,35.5v62.2l6,10.3h2l1-2V35.5c0-4.1,3.4-7.5,7.5-7.5H83v3.4c0,3.6,3,6.6,6.6,6.6h68.8c3.6,0,6.6-3,6.6-6.6
	V28h20.5c4.1,0,7.5,3.4,7.5,7.5v161c0,4.1-3.4,7.5-7.5,7.5h-123c-4.1,0-7.5-3.4-7.5-7.5V184l-1-2h-1l-7,10.1v4.4
	c0,9.1,7.4,16.5,16.5,16.5h123c9.1,0,16.5-7.4,16.5-16.5v-161C202,26.4,194.6,19,185.5,19z M159,31.4c0,0.3-0.3,0.6-0.6,0.6H89.6
	c-0.3,0-0.6-0.3-0.6-0.6V16.6c0-0.3,0.3-0.6,0.6-0.6h23.8c0.7-2.5,2.2-4.6,4.3-6c1.8-1.3,4-2,6.3-2s4.5,0.7,6.3,2
	c2,1.4,3.6,3.5,4.3,6h23.8c0.3,0,0.6,0.3,0.6,0.6V31.4z M175,186v-36h-13v36H175z M144,186h13v-25h-13V186z M126,186h13v-31h-13V186
	z M108,186h13v-17h-13V186z M74.5,57h98c1.9,0,3.5-1.6,3.5-3.5s-1.6-3.5-3.5-3.5h-98c-1.9,0-3.5,1.6-3.5,3.5S72.6,57,74.5,57z
	 M74.5,76h98c1.9,0,3.5-1.6,3.5-3.5s-1.6-3.5-3.5-3.5h-98c-1.9,0-3.5,1.6-3.5,3.5S72.6,76,74.5,76z M74.5,95h52
	c1.9,0,3.5-1.6,3.5-3.5s-1.6-3.5-3.5-3.5h-52c-1.9,0-3.5,1.6-3.5,3.5S72.6,95,74.5,95z M138,120.3h-11.8l5.9,10.2L138,120.3z
	 M166.2,113.3l5.9,10.2l5.9-10.2H166.2z M173.8,126.8l-23.7,22.7L133.7,134l-2.7,2.9l-24,22.3l2.7,2.9l24.2-22.4l16.4,15.5l2.7-2.9
	l0,0l23.6-22.6L173.8,126.8z M143,21h-38c-1.7,0-3,1.3-3,3c0,1.6,1.3,3,3,3h38c1.7,0,3-1.4,3-3C146,22.3,144.7,21,143,21z M16,145
	C16,145,16,145,16,145C16,145,16,145,16,145z M56.5,176.5l6,11l14-6l-3-11l5-5l11,2l6-13l-10-6v-7l10-7l-6-13l-11,3l-5-5l3-11l-14-6
	l-6,10L50,112l-6-10l-14,6l2.5,11.5l-5,5l-11-3l-6,14l10,6v6l-10,6l6,14l12-2l4,4l-3,11l14,6l6-10H56.5z M33,144.5
	c0-11.3,9.2-20.5,20.5-20.5S74,133.2,74,144.5S64.8,165,53.5,165S33,155.8,33,144.5z M62,135l-11,10l-6-6l-5,6l11,10l15-15L62,135z"
	/>
</svg>
