<?xml version="1.0" encoding="utf-8"?>
<!-- Generator: Adobe Illustrator 22.0.0, SVG Export Plug-In . SVG Version: 6.00 Build 0)  -->
<svg version="1.1" id="Layer_1" xmlns="http://www.w3.org/2000/svg" xmlns:xlink="http://www.w3.org/1999/xlink" x="0px" y="0px"
	 viewBox="0 0 216 216" style="enable-background:new 0 0 216 216;" xml:space="preserve">
<style type="text/css">
	.st0{fill:#575757;}
	.st1{fill:#686662;}
	.st2{fill:#B7B7B7;}
</style>
<path class="st0" d="M195.5,41.5h-175c-8.3,0-15,6.7-15,15v90c0,8.3,6.7,15,15,15h175c8.3,0,15-6.7,15-15v-90
	C210.5,48.2,203.8,41.5,195.5,41.5z M204.5,146.5c0,5-4,9-9,9h-175c-5,0-9-4-9-9v-90c0-5,4-9,9-9h175c5,0,9,4,9,9V146.5z M141,168
	H75c-1.7,0-3,1.3-3,3c0,1.6,1.3,3,3,3h66c1.7,0,3-1.4,3-3C144,169.3,142.7,168,141,168z"/>
<path class="st0" d="M90,58l3,4C77,72.7,61,83.3,45,94c-4.3-3-8.7-6-13-9l-10,7v7l10-7l13,9l51-35l3,4l6-13L90,58z M22,109v37h15
	v-43l-3-2L22,109z M41,106v40h14v-41l-8,5L41,106z M59,146h14V92l-14,10V146z M77,146h15V79L77,89V146z"/>
<rect x="118" y="122" class="st0" width="48" height="3"/>
<rect x="118" y="143" class="st0" width="51" height="3"/>
<rect x="118" y="135" class="st1" width="51" height="3"/>
<rect x="118" y="129" class="st2" width="76" height="3"/>
<circle class="st0" cx="112" cy="123" r="2"/>
<circle class="st2" cx="112" cy="130" r="2"/>
<circle class="st1" cx="112" cy="137" r="2"/>
<circle class="st0" cx="112" cy="144" r="2"/>
<path class="st2" d="M152,62v25l-19.4,15.7C129.1,98.4,127,93,127,87C127,73.2,138.2,62,152,62z"/>
<path class="st1" d="M174.9,89c-0.8,11.2-10.3,20-21.9,20c-6.1,0-11.6-2.4-15.6-6.3L154,89H174.9z"/>
<path class="st0" d="M176,86h-20l14.1-14.1C173.8,75.5,176,80.5,176,86z"/>
<path class="st0" d="M172.3,65.2L154,84V57C161.2,57.3,167.7,60.3,172.3,65.2z"/>
</svg>
