<?xml version="1.0" encoding="utf-8"?>
<!-- Generator: Adobe Illustrator 22.0.0, SVG Export Plug-In . SVG Version: 6.00 Build 0)  -->
<svg version="1.1" id="Layer_1" xmlns="http://www.w3.org/2000/svg" xmlns:xlink="http://www.w3.org/1999/xlink" x="0px" y="0px"
	 viewBox="0 0 216 216" style="enable-background:new 0 0 216 216;" xml:space="preserve">
<style type="text/css">
	.st0{fill:#AB1401;}
</style>
<path class="st0" d="M108,9C53.4,9,9,53.4,9,108s44.4,99,99,99s99-44.4,99-99S162.6,9,108,9z M108.5,124
	c-28.1,0-53.3,12.7-70.1,32.7C28.7,142.9,23,126.1,23,108c0-46.9,38.1-85,85-85s85,38.1,85,85c0,17.8-5.5,34.4-14.9,48.1
	C161.3,136.4,136.3,124,108.5,124z M107.5,40C86.8,40,70,56.8,70,77.5S86.8,115,107.5,115S145,98.2,145,77.5S128.2,40,107.5,40z"/>
</svg>
