<?xml version="1.0" encoding="utf-8"?>
<!-- Generator: Adobe Illustrator 22.0.0, SVG Export Plug-In . SVG Version: 6.00 Build 0)  -->
<svg version="1.1" id="Layer_1" xmlns="http://www.w3.org/2000/svg" xmlns:xlink="http://www.w3.org/1999/xlink" x="0px" y="0px"
	 viewBox="0 0 216 216" style="enable-background:new 0 0 216 216;" xml:space="preserve">
<style type="text/css">
	.st0{fill:url(#SVGID_1_);}
	.st1{fill:#F49898;}
	.st2{fill:#FFFFFF;}
</style>
<linearGradient id="SVGID_1_" gradientUnits="userSpaceOnUse" x1="108" y1="213" x2="108" y2="3.2569">
	<stop  offset="6.372549e-02" style="stop-color:#AA0009"/>
	<stop  offset="0.848" style="stop-color:#FF0000"/>
</linearGradient>
<path class="st0" d="M183.8,213H32.2c-16,0-29.1-13.1-29.1-29.1V32.3c0-16,13.1-29.1,29.1-29.1h151.6c16,0,29.1,13.1,29.1,29.1
	v151.6C212.9,199.9,199.8,213,183.8,213z"/>
<g>
	<path class="st1" d="M17.8,49.9c0.8-4.1,2.2-8,4.1-11.7c1.9-3.7,4.3-7.3,7.2-10.3c2.9-3.1,6.5-5.7,10.3-7.5c3.9-1.9,8.1-3,12.4-3.5
		l0,0l0.1,0l10-0.2l10-0.1c6.6-0.1,13.3-0.2,19.9-0.2c13.3-0.1,26.5,0,39.8,0l19.9,0.3l10,0.2l2.6,0.1c1,0.1,1.8,0.2,2.7,0.4
		c0.9,0.2,1.7,0.4,2.6,0.7c0.8,0.3,1.7,0.6,2.5,0.9c3.2,1.3,6.2,3.1,9,5.1c1.4,1,2.6,2.2,3.9,3.3c0.6,0.6,1.2,1.2,1.8,1.8
		c0.6,0.6,1.2,1.2,1.7,1.9c4.3,5.2,7.5,11.2,9.9,17.4c-3.1-5.9-6.9-11.4-11.4-16.1c-0.5-0.6-1.2-1.1-1.8-1.7
		c-0.6-0.5-1.2-1.1-1.8-1.6c-1.3-1-2.5-2-3.9-2.9c-2.7-1.8-5.5-3.2-8.5-4.2c-0.8-0.2-1.5-0.4-2.3-0.7c-0.8-0.2-1.5-0.4-2.3-0.5
		c-0.8-0.1-1.5-0.2-2.2-0.2l-2.4,0l-10,0.2L131.7,21c-13.3,0.1-26.5,0.2-39.8,0c-6.6,0-13.3-0.1-19.9-0.2l-10-0.1l-10-0.2l0.2,0
		c-3.9,0.3-7.8,1.1-11.5,2.6c-3.7,1.5-7,3.7-10,6.4c-3,2.7-5.5,5.9-7.7,9.3c-1.1,1.7-2.1,3.5-3,5.4C19.2,46,18.4,47.9,17.8,49.9z"/>
</g>
<g>
	<path class="st2" d="M152.6,104.7H71.9c-1.1,0-2,0.9-2,2c0,0.1,0,0.2,0,0.3l10.8,79.2c0.1,1,1,1.7,1.9,1.7h60c1,0,1.8-0.7,1.9-1.7
		l10-79.2C154.7,105.7,153.8,104.7,152.6,104.7z M98.6,172.3c-2.2,0.4-4.3-1.1-4.7-3.3l-7.8-44.2c-0.4-2.2,1.1-4.3,3.3-4.7
		c0.2,0,0.5-0.1,0.7-0.1c1.9,0,3.6,1.4,4,3.3l7.8,44.2C102.3,169.8,100.8,171.9,98.6,172.3z M116.9,167.8c0,2.2-1.8,4-4,4h0
		c-2.2,0-4-1.8-4-4v-44.9c0-2.2,1.8-4,4-4h0c2.2,0,4,1.8,4,4V167.8z M138.5,123.4l-4.4,44.6c-0.2,2.2-2.2,3.9-4.4,3.6
		c-2.2-0.2-3.8-2.2-3.6-4.4l4.4-44.6c0.2-2.2,2.2-3.9,4.4-3.6c2.1,0.2,3.6,2,3.6,4C138.5,123.1,138.5,123.3,138.5,123.4z"/>
	<path class="st2" d="M89.7,75.5l-10.5,5.1l27.5,12.9l10.2-30.2l-10.2,4.5c0,0-22.7-45.5-66.1-9.9C40.6,57.9,90.9,48.9,89.7,75.5z"
		/>
	<path class="st2" d="M156,81l5.2-4c0,0,3.3-1.5,5.4,0.9c2.1,2.4,6.7,10.3,6.7,10.3s0.7,2.7-1.6,5.7l-5.7,3.4L156,81z"/>
	<path class="st2" d="M180.6,127.1l-1.4,0.9c-1.9,1.2-4.5,0.6-5.7-1.3l-41.2-65.4c-1.2-1.9-0.6-4.5,1.3-5.7l1.4-0.9
		c1.9-1.2,4.5-0.6,5.7,1.3l41.2,65.4C183.1,123.4,182.5,125.9,180.6,127.1z"/>
</g>
</svg>
