<?xml version="1.0" encoding="utf-8"?>
<!-- Generator: Adobe Illustrator 22.0.0, SVG Export Plug-In . SVG Version: 6.00 Build 0)  -->
<svg version="1.1" id="Layer_1" xmlns="http://www.w3.org/2000/svg" xmlns:xlink="http://www.w3.org/1999/xlink" x="0px" y="0px"
	 viewBox="0 0 223.8 56" style="enable-background:new 0 0 223.8 56;" xml:space="preserve">
<style type="text/css">
	.st0{fill:#592F95;}
	.st1{display:none;}
	.st2{display:inline;fill:#FFFFFF;}
	.st3{clip-path:url(#SVGID_2_);fill:#FFFFFF;}
	.st4{clip-path:url(#SVGID_2_);}
	.st5{clip-path:url(#SVGID_4_);fill:#FFFFFF;}
	.st6{fill:#FFFFFF;}
</style>
<rect x="-0.1" y="2.3" class="st0" width="224" height="51"/>
<g class="st1">
	<path class="st2" d="M48.7,33.8V21.6h3.5c1.1,0,2,0.2,2.8,0.7c0.8,0.5,1.4,1.1,1.9,2c0.4,0.9,0.7,1.9,0.7,3V28c0,1.2-0.2,2.2-0.7,3
		c-0.4,0.9-1.1,1.5-1.9,2s-1.8,0.7-2.9,0.7H48.7z M50.3,22.9v9.6H52c1.2,0,2.2-0.4,2.9-1.2c0.7-0.8,1-1.9,1-3.3v-0.7
		c0-1.4-0.3-2.5-1-3.2c-0.7-0.8-1.6-1.2-2.8-1.2H50.3z"/>
	<path class="st2" d="M69.4,28.1c0,1.2-0.2,2.2-0.6,3.1c-0.4,0.9-1,1.6-1.7,2c-0.7,0.5-1.6,0.7-2.6,0.7c-1,0-1.8-0.2-2.6-0.7
		c-0.7-0.5-1.3-1.1-1.7-2c-0.4-0.9-0.6-1.9-0.6-3v-0.9c0-1.2,0.2-2.2,0.6-3.1c0.4-0.9,1-1.6,1.7-2.1c0.7-0.5,1.6-0.7,2.6-0.7
		c1,0,1.8,0.2,2.6,0.7c0.7,0.5,1.3,1.2,1.7,2.1c0.4,0.9,0.6,1.9,0.6,3.1V28.1z M67.7,27.3c0-1.4-0.3-2.6-0.9-3.3
		c-0.6-0.8-1.4-1.2-2.4-1.2c-1,0-1.8,0.4-2.4,1.2c-0.6,0.8-0.9,1.9-0.9,3.2v0.9c0,1.4,0.3,2.5,0.9,3.3c0.6,0.8,1.4,1.2,2.4,1.2
		c1,0,1.8-0.4,2.4-1.1c0.6-0.8,0.9-1.8,0.9-3.3V27.3z"/>
	<path class="st2" d="M74.4,29.9l0.2,1.6l0.3-1.5l2.4-8.5h1.4l2.4,8.5l0.3,1.5l0.3-1.6l1.9-8.4h1.6l-3,12.2h-1.5l-2.5-8.9l-0.2-0.9
		l-0.2,0.9l-2.6,8.9h-1.5l-3-12.2h1.6L74.4,29.9z"/>
	<path class="st2" d="M96.4,33.8h-1.6l-6.2-9.4v9.4H87V21.6h1.6l6.2,9.5v-9.5h1.6V33.8z"/>
	<path class="st2" d="M100.9,32.5h5.8v1.3h-7.4V21.6h1.6V32.5z"/>
	<path class="st2" d="M117.4,28.1c0,1.2-0.2,2.2-0.6,3.1c-0.4,0.9-1,1.6-1.7,2c-0.7,0.5-1.6,0.7-2.6,0.7c-1,0-1.8-0.2-2.6-0.7
		c-0.7-0.5-1.3-1.1-1.7-2c-0.4-0.9-0.6-1.9-0.6-3v-0.9c0-1.2,0.2-2.2,0.6-3.1c0.4-0.9,1-1.6,1.7-2.1c0.7-0.5,1.6-0.7,2.6-0.7
		c1,0,1.8,0.2,2.6,0.7c0.7,0.5,1.3,1.2,1.7,2.1c0.4,0.9,0.6,1.9,0.6,3.1V28.1z M115.8,27.3c0-1.4-0.3-2.6-0.9-3.3
		c-0.6-0.8-1.4-1.2-2.4-1.2c-1,0-1.8,0.4-2.4,1.2c-0.6,0.8-0.9,1.9-0.9,3.2v0.9c0,1.4,0.3,2.5,0.9,3.3c0.6,0.8,1.4,1.2,2.4,1.2
		c1,0,1.8-0.4,2.4-1.1c0.6-0.8,0.9-1.8,0.9-3.3V27.3z"/>
	<path class="st2" d="M126.4,30.6h-5.1l-1.2,3.2h-1.7l4.7-12.2h1.4l4.7,12.2h-1.7L126.4,30.6z M121.8,29.3h4.2l-2.1-5.7L121.8,29.3z
		"/>
	<path class="st2" d="M130.9,33.8V21.6h3.5c1.1,0,2,0.2,2.8,0.7s1.4,1.1,1.9,2c0.4,0.9,0.7,1.9,0.7,3V28c0,1.2-0.2,2.2-0.7,3
		c-0.4,0.9-1.1,1.5-1.9,2c-0.8,0.5-1.8,0.7-2.9,0.7H130.9z M132.5,22.9v9.6h1.7c1.2,0,2.2-0.4,2.9-1.2c0.7-0.8,1-1.9,1-3.3v-0.7
		c0-1.4-0.3-2.5-1-3.2s-1.6-1.2-2.8-1.2H132.5z"/>
	<path class="st2" d="M153.1,28.4H148v5.4h-1.6V21.6h7.6v1.3h-6v4.2h5.1V28.4z"/>
	<path class="st2" d="M165.3,28.1c0,1.2-0.2,2.2-0.6,3.1c-0.4,0.9-1,1.6-1.7,2c-0.7,0.5-1.6,0.7-2.6,0.7c-1,0-1.8-0.2-2.6-0.7
		c-0.7-0.5-1.3-1.1-1.7-2c-0.4-0.9-0.6-1.9-0.6-3v-0.9c0-1.2,0.2-2.2,0.6-3.1c0.4-0.9,1-1.6,1.7-2.1c0.7-0.5,1.6-0.7,2.6-0.7
		c1,0,1.8,0.2,2.6,0.7c0.7,0.5,1.3,1.2,1.7,2.1c0.4,0.9,0.6,1.9,0.6,3.1V28.1z M163.7,27.3c0-1.4-0.3-2.6-0.9-3.3
		c-0.6-0.8-1.4-1.2-2.4-1.2c-1,0-1.8,0.4-2.4,1.2c-0.6,0.8-0.9,1.9-0.9,3.2v0.9c0,1.4,0.3,2.5,0.9,3.3c0.6,0.8,1.4,1.2,2.4,1.2
		c1,0,1.8-0.4,2.4-1.1c0.6-0.8,0.9-1.8,0.9-3.3V27.3z"/>
	<path class="st2" d="M172.2,28.8h-2.9v4.9h-1.6V21.6h4c1.4,0,2.4,0.3,3.2,0.9c0.7,0.6,1.1,1.5,1.1,2.7c0,0.8-0.2,1.4-0.6,2
		s-1,1-1.7,1.3l2.9,5.2v0.1h-1.7L172.2,28.8z M169.3,27.5h2.5c0.8,0,1.4-0.2,1.9-0.6c0.5-0.4,0.7-1,0.7-1.7c0-0.8-0.2-1.3-0.7-1.7
		c-0.5-0.4-1.1-0.6-2-0.6h-2.5V27.5z"/>
	<path class="st2" d="M180.4,21.6l4,10l4-10h2.1v12.2h-1.6V29l0.2-5.1l-4,9.9h-1.2l-4-9.9l0.2,5.1v4.8h-1.6V21.6H180.4z"/>
	<path class="st2" d="M200.2,30.6h-5.1l-1.2,3.2h-1.7l4.7-12.2h1.4l4.7,12.2h-1.7L200.2,30.6z M195.6,29.3h4.2l-2.1-5.7L195.6,29.3z
		"/>
	<path class="st2" d="M212.1,22.9h-3.9v10.9h-1.6V22.9h-3.9v-1.3h9.5V22.9z"/>
</g>
<g>
	<g>
		<g>
			<defs>
				<rect id="SVGID_1_" x="17.6" y="13.3" width="29" height="29"/>
			</defs>
			<clipPath id="SVGID_2_">
				<use xlink:href="#SVGID_1_"  style="overflow:visible;"/>
			</clipPath>
			<polygon class="st3" points="43.7,24 43.7,23.3 42.3,23 43,24.5 			"/>
			<g class="st4">
				<defs>
					<rect id="SVGID_3_" x="17.6" y="13.3" width="29" height="29"/>
				</defs>
				<clipPath id="SVGID_4_">
					<use xlink:href="#SVGID_3_"  style="overflow:visible;"/>
				</clipPath>
				<path class="st5" d="M43.5,23L43.5,23L43.5,23l-0.2-0.1l-6.7-6.7h0l-1.3-1.3l-0.7,0h-8.8c-1.4,0-2.6,1.2-2.6,2.6v7.7h2v-7.7
					c0-0.3,0.3-0.6,0.6-0.6h7.9c0,0,0,0.1,0,0.1v5.2c0,1.3,1.1,2.4,2.4,2.4h5.5v13.6c0,0.3-0.3,0.6-0.6,0.6h-5.6l-2,2h7.6
					c1.4,0,2.6-1.2,2.6-2.6V23.1L43.5,23z M36.2,23c-0.4,0-0.8-0.4-0.8-0.8v-4.5l5.3,5.3H36.2z M27.9,26.1c-4.1,0-7.5,3.3-7.5,7.5
					c0,4.1,3.3,7.5,7.5,7.5s7.5-3.3,7.5-7.5C35.3,29.4,32,26.1,27.9,26.1 M28.3,37.1L28.3,37.1l-0.2,0.2l-3.7-3.7l1-1l2.3,2.3v-5.5
					h1.3v5.3l2.2-2l0.9,1L28.3,37.1z"/>
				<polygon class="st5" points="43.7,23.1 43.5,23 43.5,23 				"/>
			</g>
		</g>
	</g>
	<g>
		<path class="st6" d="M57.8,35.4V21.9h3.8c1.2,0,2.2,0.3,3.1,0.8c0.9,0.5,1.6,1.3,2.1,2.2c0.5,1,0.7,2.1,0.7,3.3v0.9
			c0,1.3-0.2,2.4-0.7,3.3c-0.5,1-1.2,1.7-2.1,2.2s-2,0.8-3.2,0.8H57.8z M59.5,23.4V34h1.9c1.4,0,2.4-0.4,3.2-1.3s1.1-2.1,1.1-3.6
			v-0.8c0-1.5-0.4-2.7-1.1-3.6s-1.7-1.3-3.1-1.3H59.5z"/>
		<path class="st6" d="M69.5,30.3c0-1,0.2-1.9,0.6-2.7c0.4-0.8,0.9-1.4,1.6-1.8c0.7-0.4,1.5-0.6,2.4-0.6c1.4,0,2.5,0.5,3.3,1.4
			s1.3,2.2,1.3,3.8v0.1c0,1-0.2,1.9-0.6,2.6c-0.4,0.8-0.9,1.4-1.6,1.8s-1.5,0.6-2.4,0.6c-1.4,0-2.5-0.5-3.3-1.4
			c-0.8-0.9-1.3-2.2-1.3-3.8V30.3z M71.2,30.5c0,1.1,0.3,2,0.8,2.7c0.5,0.7,1.2,1,2.1,1c0.9,0,1.6-0.3,2.1-1
			c0.5-0.7,0.8-1.6,0.8-2.9c0-1.1-0.3-2-0.8-2.7c-0.5-0.7-1.2-1-2.1-1c-0.8,0-1.5,0.3-2,1C71.5,28.3,71.2,29.3,71.2,30.5z"/>
		<path class="st6" d="M89.7,33l1.9-7.7h1.7l-2.9,10H89l-2.4-7.6l-2.4,7.6h-1.4l-2.9-10h1.7l2,7.5l2.3-7.5h1.4L89.7,33z"/>
		<path class="st6" d="M96.7,25.4l0.1,1.3c0.8-1,1.8-1.4,3-1.4c2.1,0,3.2,1.2,3.2,3.6v6.6h-1.7v-6.6c0-0.7-0.2-1.3-0.5-1.6
			s-0.8-0.5-1.5-0.5c-0.6,0-1,0.1-1.5,0.4c-0.4,0.3-0.7,0.7-1,1.2v7.1H95v-10H96.7z"/>
		<path class="st6" d="M107.4,35.4h-1.7V21.2h1.7V35.4z"/>
		<path class="st6" d="M109.7,30.3c0-1,0.2-1.9,0.6-2.7c0.4-0.8,0.9-1.4,1.6-1.8c0.7-0.4,1.5-0.6,2.4-0.6c1.4,0,2.5,0.5,3.3,1.4
			s1.3,2.2,1.3,3.8v0.1c0,1-0.2,1.9-0.6,2.6c-0.4,0.8-0.9,1.4-1.6,1.8c-0.7,0.4-1.5,0.6-2.4,0.6c-1.4,0-2.5-0.5-3.3-1.4
			c-0.8-0.9-1.3-2.2-1.3-3.8V30.3z M111.4,30.5c0,1.1,0.3,2,0.8,2.7c0.5,0.7,1.2,1,2.1,1c0.9,0,1.6-0.3,2.1-1
			c0.5-0.7,0.8-1.6,0.8-2.9c0-1.1-0.3-2-0.8-2.7c-0.5-0.7-1.2-1-2.1-1c-0.8,0-1.5,0.3-2,1C111.7,28.3,111.4,29.3,111.4,30.5z"/>
		<path class="st6" d="M127.2,35.4c-0.1-0.2-0.2-0.5-0.2-1.1c-0.8,0.8-1.7,1.2-2.9,1.2c-1,0-1.8-0.3-2.4-0.8s-1-1.3-1-2.1
			c0-1,0.4-1.9,1.2-2.4c0.8-0.6,1.9-0.9,3.4-0.9h1.7v-0.8c0-0.6-0.2-1.1-0.5-1.4s-0.9-0.5-1.6-0.5c-0.6,0-1.1,0.2-1.5,0.5
			c-0.4,0.3-0.6,0.7-0.6,1.1h-1.7c0-0.5,0.2-1,0.5-1.5c0.4-0.5,0.8-0.8,1.4-1.1c0.6-0.3,1.3-0.4,2-0.4c1.2,0,2.1,0.3,2.7,0.9
			c0.7,0.6,1,1.4,1,2.4v4.6c0,0.9,0.1,1.7,0.4,2.2v0.1H127.2z M124.3,34.1c0.5,0,1-0.1,1.5-0.4s0.8-0.6,1-1.1v-2.1h-1.3
			c-2.1,0-3.2,0.6-3.2,1.8c0,0.5,0.2,1,0.5,1.3S123.7,34.1,124.3,34.1z"/>
		<path class="st6" d="M130.9,30.3c0-1.5,0.4-2.8,1.1-3.7c0.7-0.9,1.7-1.4,2.9-1.4c1.2,0,2.1,0.4,2.8,1.2v-5.2h1.7v14.2h-1.6
			l-0.1-1.1c-0.7,0.8-1.6,1.3-2.9,1.3c-1.2,0-2.1-0.5-2.8-1.4s-1.1-2.2-1.1-3.7V30.3z M132.6,30.5c0,1.1,0.2,2,0.7,2.7s1.1,1,1.9,1
			c1.1,0,1.9-0.5,2.4-1.5v-4.6c-0.5-0.9-1.3-1.4-2.4-1.4c-0.8,0-1.5,0.3-2,1C132.8,28.3,132.6,29.2,132.6,30.5z"/>
		<path class="st6" d="M154.4,29.4h-5.7v6H147V21.9h8.4v1.5h-6.6V28h5.7V29.4z"/>
		<path class="st6" d="M156.5,30.3c0-1,0.2-1.9,0.6-2.7c0.4-0.8,0.9-1.4,1.6-1.8c0.7-0.4,1.5-0.6,2.4-0.6c1.4,0,2.5,0.5,3.3,1.4
			s1.3,2.2,1.3,3.8v0.1c0,1-0.2,1.9-0.6,2.6c-0.4,0.8-0.9,1.4-1.6,1.8c-0.7,0.4-1.5,0.6-2.4,0.6c-1.4,0-2.5-0.5-3.3-1.4
			c-0.8-0.9-1.3-2.2-1.3-3.8V30.3z M158.3,30.5c0,1.1,0.3,2,0.8,2.7c0.5,0.7,1.2,1,2.1,1c0.9,0,1.6-0.3,2.1-1
			c0.5-0.7,0.8-1.6,0.8-2.9c0-1.1-0.3-2-0.8-2.7c-0.5-0.7-1.2-1-2.1-1c-0.8,0-1.5,0.3-2,1C158.5,28.3,158.3,29.3,158.3,30.5z"/>
		<path class="st6" d="M172.7,26.9c-0.3,0-0.5-0.1-0.8-0.1c-1.1,0-1.9,0.5-2.3,1.4v7.1h-1.7v-10h1.7l0,1.2c0.6-0.9,1.4-1.3,2.4-1.3
			c0.3,0,0.6,0,0.8,0.1V26.9z"/>
		<path class="st6" d="M175.9,25.4l0,1.1c0.7-0.9,1.7-1.3,3-1.3c1.4,0,2.4,0.5,2.9,1.6c0.3-0.5,0.8-0.9,1.3-1.2
			c0.5-0.3,1.2-0.4,1.9-0.4c2.2,0,3.3,1.2,3.4,3.5v6.7h-1.7v-6.6c0-0.7-0.2-1.3-0.5-1.6c-0.3-0.4-0.9-0.5-1.7-0.5
			c-0.6,0-1.2,0.2-1.6,0.6c-0.4,0.4-0.7,0.9-0.7,1.5v6.7h-1.7v-6.6c0-1.5-0.7-2.2-2.1-2.2c-1.1,0-1.9,0.5-2.3,1.4v7.3h-1.7v-10
			H175.9z"/>
		<path class="st6" d="M197.1,35.4c-0.1-0.2-0.2-0.5-0.2-1.1c-0.8,0.8-1.7,1.2-2.9,1.2c-1,0-1.8-0.3-2.4-0.8s-1-1.3-1-2.1
			c0-1,0.4-1.9,1.2-2.4c0.8-0.6,1.9-0.9,3.4-0.9h1.7v-0.8c0-0.6-0.2-1.1-0.5-1.4s-0.9-0.5-1.6-0.5c-0.6,0-1.1,0.2-1.5,0.5
			c-0.4,0.3-0.6,0.7-0.6,1.1h-1.7c0-0.5,0.2-1,0.5-1.5c0.4-0.5,0.8-0.8,1.4-1.1c0.6-0.3,1.3-0.4,2-0.4c1.2,0,2.1,0.3,2.7,0.9
			c0.7,0.6,1,1.4,1,2.4v4.6c0,0.9,0.1,1.7,0.4,2.2v0.1H197.1z M194.2,34.1c0.5,0,1-0.1,1.5-0.4s0.8-0.6,1-1.1v-2.1h-1.3
			c-2.1,0-3.2,0.6-3.2,1.8c0,0.5,0.2,1,0.5,1.3S193.7,34.1,194.2,34.1z"/>
		<path class="st6" d="M203.5,22.9v2.4h1.9v1.3h-1.9v6.2c0,0.4,0.1,0.7,0.3,0.9c0.2,0.2,0.5,0.3,0.9,0.3c0.2,0,0.5,0,0.8-0.1v1.4
			c-0.5,0.1-0.9,0.2-1.3,0.2c-0.8,0-1.3-0.2-1.7-0.7s-0.6-1.1-0.6-2v-6.2H200v-1.3h1.8v-2.4H203.5z"/>
	</g>
</g>
</svg>
