<?xml version="1.0" encoding="utf-8"?>
<!-- Generator: Adobe Illustrator 22.0.0, SVG Export Plug-In . SVG Version: 6.00 Build 0)  -->
<svg version="1.1" id="Layer_1" xmlns="http://www.w3.org/2000/svg" xmlns:xlink="http://www.w3.org/1999/xlink" x="0px" y="0px"
	 viewBox="0 0 216 216" style="enable-background:new 0 0 216 216;" xml:space="preserve">
<style type="text/css">
	.st0{fill:#60379C;}
	.st1{fill:none;stroke:#FF0000;stroke-width:3;stroke-miterlimit:10;}
	.st2{fill:#FF0000;}
</style>
<path class="st0" d="M106.5,208.5c-55.1,0-100-44.9-100-100c0-55.1,44.9-100,100-100c55.1,0,100,44.9,100,100
	C206.5,163.6,161.6,208.5,106.5,208.5z M106.5,14.5c-51.8,0-94,42.2-94,94c0,51.8,42.2,94,94,94c51.8,0,94-42.2,94-94
	C200.5,56.7,158.3,14.5,106.5,14.5z"/>
<path class="st1" d="M128.2,134.9c-3.5,0.8-7.2,1.2-11,1.1C93,135.6,73.1,116.2,72,92c-0.2-3.9,0.2-7.8,0.9-11.5
	c0.3-1.3,1.9-1.8,2.9-0.8l53.1,52.4C129.8,133,129.4,134.6,128.2,134.9z"/>
<path class="st1" d="M83.4,120.2l-6.3,22.2c-0.3,1.1,0.5,2.2,1.6,2.2h22.5c1.1,0,1.9-1.1,1.6-2.2l-3.1-10
	C99.8,132.3,89.2,127.8,83.4,120.2z"/>
<path class="st2" d="M119,91.5c-3,0-5.5-2.5-5.5-5.5s2.5-5.5,5.5-5.5s5.5,2.5,5.5,5.5S122,91.5,119,91.5z M119,82.5
	c-1.9,0-3.5,1.6-3.5,3.5s1.6,3.5,3.5,3.5s3.5-1.6,3.5-3.5S120.9,82.5,119,82.5z"/>
<rect x="106.7" y="85.4" transform="matrix(0.7071 0.7071 -0.7071 0.7071 99.9725 -47.8518)" class="st2" width="2" height="22.6"/>
<rect x="116.1" y="89.4" transform="matrix(0.9656 0.2601 -0.2601 0.9656 30.8143 -26.9205)" class="st2" width="2" height="27.3"/>
<rect x="101.1" y="74.4" transform="matrix(0.2766 0.961 -0.961 0.2766 158.4572 -34.5028)" class="st2" width="2" height="27.3"/>
<g>
	<path class="st2" d="M146.2,85.3l-2.4-0.5c1.8-8.3-5.6-16.8-5.7-16.9c-6.6-8.4-18.8-7.6-19-7.6l-0.2-2.5c0.6,0,13.8-0.9,21.1,8.5
		C140.3,66.6,148.3,75.8,146.2,85.3z"/>
</g>
<path class="st2" d="M138.2,85.4l-2.4-0.8c1.8-5.3-2.7-10.8-2.8-10.8c-5.5-6.4-13.8-5.6-13.9-5.6l-0.3-2.5c0.4,0,9.7-1,16.1,6.4
	C135.2,72.5,140.4,78.8,138.2,85.4z"/>
<path class="st2" d="M131.3,85h-2.5c0-3.3-0.9-5.7-2.6-7.2c-2.8-2.3-6.8-1.6-6.9-1.6l-0.4-2.5c0.2,0,5.3-0.9,8.9,2.1
	C130.1,77.9,131.3,80.9,131.3,85z"/>
</svg>
