<?xml version="1.0" encoding="utf-8"?>
<!-- Generator: Adobe Illustrator 22.0.0, SVG Export Plug-In . SVG Version: 6.00 Build 0)  -->
<svg version="1.1" id="Layer_1" xmlns="http://www.w3.org/2000/svg" xmlns:xlink="http://www.w3.org/1999/xlink" x="0px" y="0px"
	 viewBox="0 0 216 216" style="enable-background:new 0 0 216 216;" xml:space="preserve">
<style type="text/css">
	.st0{fill:#60379C;}
</style>
<path class="st0" d="M189.8,98.4v80.3c0,7.4-6,13.3-13.3,13.3H36.8c-7.4,0-13.3-6-13.3-13.3V38.9c0-7.3,6-13.3,13.3-13.3h97.5
	l16.1-16H36.8C20.6,9.6,7.5,22.8,7.5,38.9v139.8c0,16.2,13.1,29.3,29.3,29.3h139.7c16.2,0,29.3-13.1,29.3-29.3V82.4L189.8,98.4z"/>
<path class="st0" d="M150.4,33.6l-91.2,90.6v39.7H100l90-91.2L150.4,33.6z M149,47.1l2.4,2.9l-50.9,51.5l-3.6-2.4L149,47.1z
	 M104,138.3l-9.8,8.8l-2,1.8h-8.3l-9.5-9.5v-7.1l14.8-13l16.1,17.4l-1.5,1.4L104,138.3z"/>
<path class="st0" d="M155,27.7L194.4,67l14.8-12.9c4.4-3.8,4.7-10.6,0.6-14.7l-25.9-26.4c-3.6-3.7-9.6-3.8-13.3-0.2L155,27.7z"/>
</svg>
