<?xml version="1.0" encoding="utf-8"?>
<!-- Generator: Adobe Illustrator 22.0.0, SVG Export Plug-In . SVG Version: 6.00 Build 0)  -->
<svg version="1.1" id="Layer_1" xmlns="http://www.w3.org/2000/svg" xmlns:xlink="http://www.w3.org/1999/xlink" x="0px" y="0px"
	 viewBox="0 0 216 216" style="enable-background:new 0 0 216 216;" xml:space="preserve">
<style type="text/css">
	.st0{fill:#60379C;}
	.st1{fill:#6DD2E2;}
</style>
<path class="st0" d="M107.5,208.5c-55.7,0-101-45.3-101-101s45.3-101,101-101s101,45.3,101,101S163.2,208.5,107.5,208.5z
	 M107.5,12.5c-52.4,0-95,42.6-95,95c0,52.4,42.6,95,95,95c52.4,0,95-42.6,95-95C202.5,55.1,159.9,12.5,107.5,12.5z"/>
<path class="st1" d="M114.5,143h-19c-0.8,0-1.5,0.7-1.5,1.5s0.7,1.5,1.5,1.5h19c0.8,0,1.5-0.7,1.5-1.5S115.3,143,114.5,143z
	 M114.5,149h-19c-0.8,0-1.5,0.7-1.5,1.5s0.7,1.5,1.5,1.5h19c0.8,0,1.5-0.7,1.5-1.5S115.3,149,114.5,149z M114.5,155h-19
	c-0.8,0-1.5,0.7-1.5,1.5s0.7,1.5,1.5,1.5h19c0.8,0,1.5-0.7,1.5-1.5S115.3,155,114.5,155z M101.8,161c-0.5,0.5-0.8,1.2-0.8,2
	c0,1.6,1.3,3,3,3h2c0.8,0,1.6-0.3,2.1-0.9c0.5-0.5,0.9-1.3,0.9-2.1c0-0.8-0.3-1.5-0.8-2H101.8z M105,55c-19.3,0-35,15.5-35,34.5
	c0,3.4,0.5,6.7,1.5,9.8h0c0,0,0,0.2,0.1,0.4c0.8,2.5,1.9,5,3.2,7.2c1.7,2.9,3.9,5.5,6.3,7.7c0.1,0.1,0.2,0.2,0.3,0.3
	c0,0,5.1,7.5,6.1,12.5s-1,9,5.5,13.5h23c0,0,6-1,6-9c0-4,1-10,5-14c4-4,10.5-12.2,12.3-21.4c0-0.1,0-0.2,0.1-0.3c0,0,0,0,0-0.1
	c0,0,0,0,0,0c0.4-2.2,0.7-4.5,0.7-6.8C140,70.5,124.3,55,105,55z M95,123l9-27l-16,1l29-32l-11,25h15L95,123z"/>
</svg>
