<?xml version="1.0" encoding="utf-8"?>
<!-- Generator: Adobe Illustrator 22.0.0, SVG Export Plug-In . SVG Version: 6.00 Build 0)  -->
<svg version="1.1" id="Layer_1" xmlns="http://www.w3.org/2000/svg" xmlns:xlink="http://www.w3.org/1999/xlink" x="0px" y="0px"
	 viewBox="0 0 216 216" style="enable-background:new 0 0 216 216;" xml:space="preserve">
<style type="text/css">
	.st0{fill:#585858;}
	.st1{fill:#FFFFFF;}
</style>
<path class="st0" d="M203.6,22.9h-78.4c-0.1,0-0.2,0-0.3,0v-3.7c0-6.4-6-11-12.2-9.4L8.6,36.6c-4.4,1.1-7.4,5.1-7.3,9.6L4,177.5
	c0.1,4.7,3.5,8.6,8.1,9.4l101.4,17c5.9,1,11.3-3.6,11.3-9.6v-4.6c0.1,0,0.2,0,0.3,0h78.4c6.3,0,11.5-5.1,11.5-11.5V34.3
	C215.1,28,209.9,22.9,203.6,22.9z M150.9,175.4h-22.8v-14.5h22.8V175.4z M150.9,151.9h-22.8v-16.2h22.8V151.9z M150.9,126.7h-22.8
	v-16.2h22.8V126.7z M150.9,101.5h-22.8V85.3h22.8V101.5z M150.9,76.3h-22.8V60h22.8V76.3z M150.9,51h-22.8V37.2h22.8V51z
	 M200.8,175.4h-39.6v-14.5h39.6V175.4z M200.8,151.9h-39.6v-16.2h39.6V151.9z M200.8,126.7h-39.6v-16.2h39.6V126.7z M200.8,101.5
	h-39.6V85.3h39.6V101.5z M200.8,76.3h-39.6V60h39.6V76.3z M200.8,51h-39.6V37.2h39.6V51z"/>
<path class="st1" d="M61.6,101l10.4-15.9h13.2L69,108l16.6,23.2H72.3l-10.7-16.1l-10.7,16.1H37.6L54.2,108L38,85.1h13.2L61.6,101z"
	/>
</svg>
