<?xml version="1.0" encoding="utf-8"?>
<!-- Generator: Adobe Illustrator 22.0.0, SVG Export Plug-In . SVG Version: 6.00 Build 0)  -->
<svg version="1.1" id="Layer_1" xmlns="http://www.w3.org/2000/svg" xmlns:xlink="http://www.w3.org/1999/xlink" x="0px" y="0px"
	 viewBox="0 0 216 216" style="enable-background:new 0 0 216 216;" xml:space="preserve">
<style type="text/css">
	.st0{fill:#592F95;}
</style>
<g>
	<path class="st0" d="M30,61.8v36.6h86.4V61.8H30z M57.8,89.6l-4.1-6l-3.5,6h-6.7l6.9-10.9l-7.2-10.4h7l4,5.9l3.4-5.9h6.7L57.5,79
		l7.3,10.6H57.8z M81.2,89.6H68.6V68.2h5.9V85h6.6V89.6z M93.3,89.8c-4.7,0-8.4-2.3-8.7-6.8H91c0.1,1.6,1.1,2.1,2.2,2.1
		c1.1,0,1.9-0.5,1.9-1.5c0-3.4-10.4-1.8-10.3-9.2c0-4.2,3.5-6.4,8-6.4c4.9,0,8.1,2.4,8.3,6.6h-6.4c-0.1-1.3-0.9-1.9-2-1.9
		c-0.9,0-1.6,0.5-1.6,1.5c0,3.2,10.3,2.2,10.3,9C101.3,86.8,98.4,89.8,93.3,89.8z"/>
	<path class="st0" d="M178.9,43.3l-31.7-33.2l-5.7-5.9l-2-2.1H48.7c-8.2,0-14.8,6.6-14.8,14.8v41.6H42V19.3c0-5.1,4.1-9.2,9.2-9.2
		H135v36.3c0,6.7,5.4,12.1,12.1,12.1h31.9v134.9c0,3.6-2.9,6.5-6.5,6.5h-39.6l-7.3,7.7v0.4h48.8c7,0,12.7-5.7,12.7-12.7V51.7
		L178.9,43.3z M151,51.8c-5.2,0-9.4-4.2-9.4-9.4V15.8l34.4,36H151z"/>
	<path class="st0" d="M95.8,207.9h-47c-8.3,0-15-6.7-15-15v-91.6H42v89.2c0,5.1,4.2,9.3,9.3,9.3h36.9L95.8,207.9z"/>
	<polygon class="st0" points="136.8,187.7 135,189.7 125.5,199.6 125.3,199.8 117.6,207.9 115.2,210.4 110.5,215.3 103.3,207.9 
		96.2,200.4 96.2,199.8 95.6,199.8 84.1,187.7 96.2,187.7 96.2,155.5 125.5,155.5 125.5,187.7 	"/>
</g>
</svg>
