<?xml version="1.0" encoding="utf-8"?>
<!-- Generator: Adobe Illustrator 22.0.0, SVG Export Plug-In . SVG Version: 6.00 Build 0)  -->
<svg version="1.1" xmlns="http://www.w3.org/2000/svg" xmlns:xlink="http://www.w3.org/1999/xlink" x="0px" y="0px"
	 viewBox="0 0 200 200" style="enable-background:new 0 0 200 200;" xml:space="preserve">
<style type="text/css">
	.st0{display:none;}
	.st1{display:inline;fill:#031996;}
	.st2{display:inline;}
	.st3{fill:#162D9F;}
	.st4{fill:#2C3E50;}
	.st5{display:inline;fill:#2C3E50;}
	.st6{font-family:'MicrosoftYaHeiUI-Bold';}
	.st7{font-size:50.3644px;}
</style>
<g id="line">
</g>
<g id="Layer_1" class="st0">
	
		<rect x="48.4" y="126.5" transform="matrix(0.7071 -0.7071 0.7071 0.7071 -64.295 111.2798)" class="st1" width="107.5" height="13.4"/>
	
		<rect x="95.5" y="13" transform="matrix(0.7071 -0.7071 0.7071 0.7071 -17.2712 91.802)" class="st1" width="13.4" height="107.5"/>
</g>
<g id="Layer_10" class="st0">
	<g class="st2">
		<g>
			<path class="st3" d="M47.7,130.1l19.9-19.9c-1.3-3.6-2-7.5-2-11.5c0-19,15.4-34.3,34.3-34.3c4,0,7.9,0.7,11.5,2L125,52.8
				c-7.9-2.5-16.4-3.8-25.1-3.8c-33.6,0-62.5,19.8-75.8,48.3c-0.4,0.9-0.4,1.9,0,2.8C29.6,111.8,37.7,122,47.7,130.1z"/>
			<path class="st3" d="M152.1,67.2l-19.9,19.9c1.3,3.6,2,7.5,2,11.5c0,19-15.4,34.3-34.3,34.3c-4,0-7.9-0.7-11.5-2l-13.6,13.6
				c7.9,2.5,16.4,3.8,25.1,3.8c33.6,0,62.5-19.8,75.8-48.3c0.4-0.9,0.4-1.9,0-2.8C170.2,85.5,162.1,75.3,152.1,67.2z"/>
			<path class="st3" d="M99.9,120.6c12.1,0,22-9.8,22-22c0-0.4,0-0.8,0-1.1l-23.1,23.1C99.1,120.6,99.5,120.6,99.9,120.6z"/>
			<path class="st3" d="M99.9,76.7c-12.1,0-22,9.8-22,22c0,0.4,0,0.8,0,1.1l23.1-23.1C100.7,76.7,100.3,76.7,99.9,76.7z"/>
			<path class="st3" d="M53,134l-10.3,10.3c-3.2,3.2-3.2,8.4,0,11.5c1.6,1.6,3.7,2.4,5.8,2.4c2.1,0,4.2-0.8,5.8-2.4L68,142.1
				L82.1,128l9.2-9.2L120.1,90l9.2-9.2l17.5-17.5L157.1,53c3.2-3.2,3.2-8.4,0-11.5c-1.6-1.6-3.7-2.4-5.8-2.4c-2.1,0-4.2,0.8-5.8,2.4
				l-13.8,13.8l-14.1,14.1l-9.2,9.2l-28.8,28.8l-9.2,9.2L53,134z"/>
		</g>
	</g>
</g>
<g id="Layer_11">
	<g>
		<path class="st4" d="M100.1,50.1c-33.5,0-62.3,19.7-75.6,48.2c-0.4,0.9-0.4,1.9,0,2.8c13.2,28.5,42.1,48.2,75.6,48.2
			s62.3-19.7,75.6-48.2c0.4-0.9,0.4-1.9,0-2.8C162.4,69.9,133.6,50.1,100.1,50.1z M100.1,133.9c-18.9,0-34.2-15.3-34.2-34.2
			c0-18.9,15.3-34.2,34.2-34.2c18.9,0,34.2,15.3,34.2,34.2S119,133.9,100.1,133.9z"/>
		<circle class="st4" cx="100.1" cy="99.7" r="21.9"/>
	</g>
</g>
<g id="Layer_71" class="st0">
	<path class="st5" d="M134.8,58c-16.8,0-31.2,10-37.6,24.4c7.9,3.4,14.6,9.2,19.2,16.5V78h8.1v18.3L136,78h11l-14,19l15,20h-11
		l-12.6-19.7V117h-2c0.1,1.3,0.2,2.7,0.2,4c0,5.8-1.2,11.4-3.3,16.4c4.8,1.9,10,3,15.5,3c22.8,0,41.2-18.5,41.2-41.2
		C176,76.4,157.5,58,134.8,58z M160,117c0,0-5,0-6.2-0.3c-1.3-0.3-3.9-1.3-3.9-1.3L149,115v-6c0,0,6.2,3.5,11.1,2.3
		c0.8-0.2,1.5-0.6,1.9-1.3c0.7-1,0.8-2.6-3.1-4.3c-0.9-0.4-1.8-0.7-2.7-0.9c-1.9-0.5-6.8-2.4-6.6-7.8c0.1-3.5,2.4-6.5,5.6-7.8
		c2.6-1,6.7-2.2,11.7-0.2l2,1v6c0,0-4-2-8-2c0,0-2,0-3,1c0,0-1,1,0,3c0,0,0.7,0.4,1.5,0.9c0.8,0.4,1.7,0.8,2.6,1
		c0.9,0.2,1.8,0.4,2.6,0.8c1.2,0.6,2.9,1.6,4.1,3c0.6,0.7,1,1.5,1.2,2.3C170,106,173,115,160,117z"/>
	<path class="st5" d="M70.1,79.2C44.6,79.2,24,99.8,24,125.3s20.6,46.1,46.1,46.1s46.1-20.6,46.1-46.1S95.5,79.2,70.1,79.2z
		 M70.1,163.3c-21,0-38-17-38-38c0-21,17-38,38-38s38,17,38,38C108.1,146.3,91.1,163.3,70.1,163.3z"/>
	<text transform="matrix(1 0 0 1 40.8774 144.3311)" class="st5 st6 st7">Ks</text>
	<path class="st5" d="M78.2,28.9c-20.1,0-36.4,16.3-36.4,36.4c0,5,1,9.8,2.8,14.1l7.8-2.4c-1.6-3.6-2.5-7.5-2.5-11.7
		c0-15.6,12.7-28.3,28.3-28.3c13.9,0,25.5,10,27.8,23.3l7.8-2.4C110.3,41.3,95.7,28.9,78.2,28.9z"/>
	<polygon class="st5" points="71.7,70.9 64.8,64.1 66.7,72.4 60.7,74.2 55.4,51 61.4,49.6 64.6,63.3 70.2,47.6 78.4,45.7 71.2,62.4 
		78.7,68.8 	"/>
	<path class="st5" d="M100.1,62.2l-7.7,2.3c-0.1,0-0.2,0-0.3-0.1c-0.7-0.1-1.4-0.2-2.2-0.2c-1.5-0.1-5.5-0.7-6.3-4.8
		c-0.5-2.6,0.7-5.3,2.9-6.8c1.8-1.2,4.6-2.8,8.7-2.2l1.7,0.4l1,4.5c0,0-3.3-0.8-6.3-0.1c0,0-1.5,0.3-2.1,1.3c0,0-0.6,0.9,0.5,2.3
		c0,0,0.5,0.2,1.3,0.4c0.6,0.2,1.4,0.3,2.1,0.3c0.7,0,1.4,0,2.1,0.2c1,0.2,2.5,0.7,3.5,1.5C99.5,61.5,99.9,61.8,100.1,62.2z"/>
</g>
</svg>
