<?xml version="1.0" encoding="utf-8"?>
<!-- Generator: Adobe Illustrator 22.0.0, SVG Export Plug-In . SVG Version: 6.00 Build 0)  -->
<svg version="1.1" id="Layer_1" xmlns="http://www.w3.org/2000/svg" xmlns:xlink="http://www.w3.org/1999/xlink" x="0px" y="0px"
	 viewBox="0 0 216 216" style="enable-background:new 0 0 216 216;" xml:space="preserve">
<style type="text/css">
	.st0{fill:#592F95;}
</style>
<path class="st0" d="M100.1,214c-2.4,0-4.8-0.5-7-1.7c-5.5-2.7-8.9-8.2-8.9-14.3v-84.6L22,28.3c-3.6-4.9-4.1-11.2-1.3-16.6
	C23.4,6.3,28.8,3,34.8,3h151.9c6,0,11.4,3.3,14.2,8.7c2.7,5.4,2.2,11.7-1.3,16.6l-61.2,84.7v67.8c0,4.9-2.3,9.6-6.2,12.6l-22.4,17.3
	C106.9,212.9,103.5,214,100.1,214z M38.3,20.7l60.5,82.8c2,2.7,3.1,6,3.1,9.4v81.6l18.9-14.6v-67.6c0-3.4,1-6.6,3-9.3l59.6-82.4
	H38.3z"/>
<rect x="41.1" y="34.6" class="st0" width="138.1" height="18.1"/>
</svg>
