<?xml version="1.0" encoding="utf-8"?>
<!-- Generator: Adobe Illustrator 22.0.0, SVG Export Plug-In . SVG Version: 6.00 Build 0)  -->
<svg version="1.1" id="Layer_1" xmlns="http://www.w3.org/2000/svg" xmlns:xlink="http://www.w3.org/1999/xlink" x="0px" y="0px"
	 viewBox="0 0 216 216" style="enable-background:new 0 0 216 216;" xml:space="preserve">
<style type="text/css">
	.st0{fill:#FECC00;}
	.st1{fill:#31B430;}
	.st2{fill:#EB2336;}
	.st3{fill:#FFFFFF;}
</style>
<g>
	<rect x="-0.3" y="86.1" class="st0" width="109" height="58.6"/>
	<rect x="-0.3" y="105.1" class="st1" width="109" height="24.1"/>
	<rect x="-0.3" y="124" class="st2" width="109" height="20.8"/>
</g>
<polygon class="st3" points="54.2,94.4 59.5,110.5 76.4,110.5 62.7,120.4 67.9,136.5 54.2,126.5 40.6,136.5 45.8,120.4 32.1,110.5 
	49,110.5 "/>
<g>
	<path d="M127.8,114h11v4.7h-11v12.5h-5v-12.5h-11V114h11v-11.5h5V114z"/>
	<path d="M177.4,117.8c-1,1.2-2.3,2.2-3.8,3s-3,1.1-4.8,1.1c-2.3,0-4.3-0.6-5.9-1.7c-1.7-1.1-3-2.7-3.9-4.7c-0.9-2-1.4-4.3-1.4-6.7
		c0-2.6,0.5-5,1.5-7.1c1-2.1,2.4-3.7,4.3-4.9s4-1.7,6.4-1.7c3.9,0,7,1.5,9.2,4.4c2.2,2.9,3.4,6.9,3.4,11.9v1.5
		c0,7.7-1.5,13.3-4.6,16.8c-3,3.5-7.6,5.3-13.7,5.4h-1v-4.3h1.1c4.1-0.1,7.3-1.2,9.5-3.2C176,125.6,177.2,122.3,177.4,117.8z
		 M169.6,117.8c1.7,0,3.2-0.5,4.6-1.5c1.4-1,2.5-2.3,3.1-3.8v-2c0-3.3-0.7-6-2.1-8c-1.4-2.1-3.2-3.1-5.4-3.1c-2.2,0-4,0.8-5.3,2.5
		c-1.3,1.7-2,3.9-2,6.7c0,2.7,0.6,4.9,1.9,6.7C165.7,116.9,167.5,117.8,169.6,117.8z"/>
	<path d="M191.6,115.4l2-19.7h20.2v4.6h-16l-1.2,10.8c1.9-1.1,4.1-1.7,6.6-1.7c3.6,0,6.4,1.2,8.6,3.6c2.1,2.4,3.2,5.6,3.2,9.6
		c0,4.1-1.1,7.3-3.3,9.6c-2.2,2.3-5.3,3.5-9.2,3.5c-3.5,0-6.3-1-8.5-2.9c-2.2-1.9-3.5-4.6-3.8-8h4.7c0.3,2.3,1.1,4,2.4,5.1
		c1.3,1.1,3,1.7,5.2,1.7c2.3,0,4.2-0.8,5.5-2.4c1.3-1.6,2-3.8,2-6.6c0-2.6-0.7-4.8-2.2-6.4c-1.4-1.6-3.3-2.4-5.7-2.4
		c-2.2,0-3.9,0.5-5.1,1.4l-1.3,1.1L191.6,115.4z"/>
</g>
</svg>
