<?xml version="1.0" encoding="utf-8"?>
<!-- Generator: Adobe Illustrator 22.0.0, SVG Export Plug-In . SVG Version: 6.00 Build 0)  -->
<svg version="1.1" id="Layer_1" xmlns="http://www.w3.org/2000/svg" xmlns:xlink="http://www.w3.org/1999/xlink" x="0px" y="0px"
	 viewBox="0 0 216 216" style="enable-background:new 0 0 216 216;" xml:space="preserve">
<style type="text/css">
	.st0{fill:#60379C;}
	.st1{fill:#CE0B11;}
</style>
<path class="st0" d="M107,210.5C51,210.5,5.5,165,5.5,109C5.5,53,51,7.5,107,7.5C163,7.5,208.5,53,208.5,109
	C208.5,165,163,210.5,107,210.5z M107,13.5c-52.7,0-95.5,42.8-95.5,95.5c0,52.7,42.8,95.5,95.5,95.5c52.7,0,95.5-42.8,95.5-95.5
	C202.5,56.3,159.7,13.5,107,13.5z"/>
<rect x="62" y="110" class="st1" width="41" height="49"/>
<rect x="113" y="110" class="st1" width="41" height="49"/>
<rect x="113" y="91" class="st1" width="47" height="16"/>
<rect x="56" y="91" class="st1" width="47" height="16"/>
<path class="st1" d="M144.5,75.5c0-1,1-5,1-5l-15,7c0,0,10-12.6,7.7-20c-0.8-2.6-3.4-4.2-6-3.9c-5.5,0.5-18.9,3.6-23.6,20.9
	c0,0-10.1-26.7-27.8-24.4c-1.7,0.2-3.1,1.3-3.5,2.9c-1,3.5-1.1,10.8,8.3,23.5l-16-5c0,0,4,5-2.5,10.5c0,0,21,1,41,8
	c0,0,34.5-7.5,40.5-9.5C148.5,80.5,144.5,76.5,144.5,75.5z M103.5,82.5c0,0-16-2-17-19c0,0,3-7,12,3
	C101.5,70.5,105.5,73.5,103.5,82.5z M125.1,74.8c-3.3,3.8-5.4,8.3-14.6,8.3c-0.1-1.3-0.6-8.8,5-14.7c3.5-3.8,7.7-5,9.5-5.4
	c2,0.1,2.8,0.8,3.1,1.3C130.1,66.7,127.3,72.3,125.1,74.8z"/>
</svg>
