<?xml version="1.0" encoding="utf-8"?>
<!-- Generator: Adobe Illustrator 22.0.0, SVG Export Plug-In . SVG Version: 6.00 Build 0)  -->
<svg version="1.1" id="Layer_1" xmlns="http://www.w3.org/2000/svg" xmlns:xlink="http://www.w3.org/1999/xlink" x="0px" y="0px"
	 viewBox="0 0 216 216" style="enable-background:new 0 0 216 216;" xml:space="preserve">
<style type="text/css">
	.st0{fill:#575757;}
</style>
<path class="st0" d="M47.5,213.5h139v-175h-139V213.5z M53.5,44.5h127v163h-127V44.5z M10.4,28.5l125.7-18.3l3.5,23.8h6.1l-4.5-30.6
	L3.6,23.4l25.2,173.2l13.2-1.9v-6.1l-8.1,1.2L10.4,28.5z M191,50.5v5.2h14.5v140.2H191v5.2h20.5V50.5H191z M136,63H70v7h66V63z
	 M165,63h-23v7h23V63z M99,100h66v-7H99V100z M165,123H70v7h95V123z M70,160h49v-7H70V160z M70,190h49v-7H70V190z M93,93H70v7h23V93
	z M153.9,167.3v-10.6c1.9,0.8,3.1,2.2,3.6,4.4l7.6-0.9c-0.5-2.7-1.7-4.9-3.6-6.5c-1.9-1.6-4.4-2.6-7.6-3v-2.7h-4.3v2.7
	c-3.4,0.3-6.2,1.5-8.2,3.5c-2.1,2-3.1,4.5-3.1,7.5c0,2.9,0.9,5.4,2.7,7.5c1.8,2.1,4.7,3.6,8.6,4.6v11.4c-1.1-0.5-2-1.2-2.9-2.3
	c-0.9-1.1-1.5-2.3-1.8-3.8l-7.8,0.8c0.6,3.6,2,6.3,4.1,8.3c2.1,2,4.9,3.1,8.4,3.5v5h4.3v-5.1c3.9-0.5,6.9-1.9,9.1-4.1
	c2.2-2.2,3.3-5,3.3-8.3c0-2.9-0.9-5.3-2.6-7.2S158.7,168.4,153.9,167.3z M149.6,166c-1.3-0.5-2.3-1.2-2.9-2c-0.6-0.8-1-1.7-1-2.7
	c0-1.1,0.3-2,1-2.9c0.7-0.9,1.6-1.5,2.8-1.9V166z M157.6,183.6c-0.9,1-2.1,1.6-3.6,1.9v-10.6c1.8,0.5,3.1,1.1,3.9,2
	c0.8,0.9,1.2,1.9,1.2,3.1C159,181.4,158.5,182.6,157.6,183.6z"/>
</svg>
