<?xml version="1.0" encoding="utf-8"?>
<!-- Generator: Adobe Illustrator 22.0.0, SVG Export Plug-In . SVG Version: 6.00 Build 0)  -->
<svg version="1.1" id="Layer_1" xmlns="http://www.w3.org/2000/svg" xmlns:xlink="http://www.w3.org/1999/xlink" x="0px" y="0px"
	 viewBox="0 0 216 216" style="enable-background:new 0 0 216 216;" xml:space="preserve">
<style type="text/css">
	.st0{fill:#575757;}
</style>
<path class="st0" d="M43,46h44c2.2,0,4-1.8,4-4s-1.8-4-4-4H43c-2.2,0-4,1.8-4,4S40.8,46,43,46z M43,124h53c2.2,0,4-1.8,4-4
	s-1.8-4-4-4H43c-2.2,0-4,1.8-4,4S40.8,124,43,124z M70,142H43c-2.2,0-4,1.8-4,4s1.8,4,4,4h27c2.2,0,4-1.8,4-4S72.2,142,70,142z
	 M70,168H43c-2.2,0-4,1.8-4,4s1.8,4,4,4h27c2.2,0,4-1.8,4-4S72.2,168,70,168z M43,72h88c2.2,0,4-1.8,4-4s-1.8-4-4-4H43
	c-2.2,0-4,1.8-4,4S40.8,72,43,72z M43,98h79c2.2,0,4-1.8,4-4s-1.8-4-4-4H43c-2.2,0-4,1.8-4,4S40.8,98,43,98z M200.8,72.8l-14.3-14.2
	v-26l0,0l-0.2-0.9L158.9,4.2L158.7,4c-0.1-0.1-0.3-0.1-0.5-0.2l0-0.2l-1.7-0.1l0,0H20.2c-3.4,0-6.2,2.8-6.2,6.2v196.7
	c0,3.4,2.8,6.2,6.2,6.2h160.2c3.4,0,6.2-2.8,6.2-6.2v-111l14.2-14.2C203,78.8,203.1,75,200.8,72.8z M159.5,16.2L174.3,31h-14.8V16.2
	z M178.5,204.5H22v-193h130.5v20.8c0,3.1,2.5,5.7,5.7,5.7h20.3v20.3c-0.1,0.1-0.3,0.2-0.4,0.3L97.2,140c0,0,0,0,0,0
	c-5.8,5-6,7.1-6,7.1c-0.2,0.3-0.4,0.7-0.6,1L82,168.6c-1,2.4-0.5,5.1,1.4,7c1.2,1.2,2.9,1.9,4.5,1.9c0.8,0,1.7-0.2,2.5-0.5l20.2-8.5
	c0,0,3.3-1.1,5.7-2.8c0.2-0.1,0.4-0.3,0.6-0.4c0.1-0.1,0.2-0.2,0.3-0.2c0.1-0.1,0.2-0.1,0.2-0.2l61.1-61.5V204.5z M106.6,162.6
	L89,170l7.4-17.5L106.6,162.6z M113.3,158.3l-9.1-9l-2.9-2.9l80.8-81.2l11.9,11.9L113.3,158.3z"/>
</svg>
