<?xml version="1.0" encoding="utf-8"?>
<!-- Generator: Adobe Illustrator 22.0.0, SVG Export Plug-In . SVG Version: 6.00 Build 0)  -->
<svg version="1.1" id="Layer_1" xmlns="http://www.w3.org/2000/svg" xmlns:xlink="http://www.w3.org/1999/xlink" x="0px" y="0px"
	 viewBox="0 0 216 216" style="enable-background:new 0 0 216 216;" xml:space="preserve">
<style type="text/css">
	.st0{fill:#575757;}
</style>
<path class="st0" d="M131,147H95c0-39,0-84,0-84s1-8-5-11c-3.2-1.6-20.4-13.6-35.9-24.5H131v25h19V27c0-10.2-8.3-18.5-18.5-18.5
	H27.8L16,8C16,8,6,9,6,20v127.5c0,8.3,0,13.5,0,13.5s0,6,8,10s70,36,70,36s11,8,11-5v-36h36.5c10.2,0,18.5-8.3,18.5-18.5V101h-19
	V147z M209.5,69.7c-0.5-0.8-1-1.6-1.7-2.3L176.3,36c-4.1-4.1-10.8-4.1-14.8,0s-4.1,10.8,0,14.8L176.7,66h-57.2
	c-5.8,0-10.5,4.7-10.5,10.5c0,5.8,4.7,10.5,10.5,10.5h56.4l-14.4,14.4c-4.1,4.1-4.1,10.8,0,14.8s10.8,4.1,14.8,0l31.1-31.1
	c2.7-1.9,4.5-5.1,4.5-8.6C212,73.9,211,71.5,209.5,69.7z"/>
</svg>
