<?xml version="1.0" encoding="utf-8"?>
<!-- Generator: Adobe Illustrator 22.0.0, SVG Export Plug-In . SVG Version: 6.00 Build 0)  -->
<svg version="1.1" id="Layer_1" xmlns="http://www.w3.org/2000/svg" xmlns:xlink="http://www.w3.org/1999/xlink" x="0px" y="0px"
	 viewBox="0 0 216 216" style="enable-background:new 0 0 216 216;" xml:space="preserve">
<style type="text/css">
	.st0{fill:#60379C;}
	.st1{fill:#28A0FF;}
	.st2{filter:url(#Adobe_OpacityMaskFilter);}
	.st3{opacity:0.76;mask:url(#SVGID_1_);}
	.st4{fill:#707070;}
	.st5{fill:#FFFF00;}
	.st6{filter:url(#Adobe_OpacityMaskFilter_1_);}
	.st7{opacity:0.15;mask:url(#SVGID_2_);}
	.st8{filter:url(#Adobe_OpacityMaskFilter_2_);}
	.st9{opacity:0.2;mask:url(#SVGID_3_);}
</style>
<image style="overflow:visible;" width="572" height="576" xlink:href="../Over Seas Top Up.png"  transform="matrix(0.3754 0 0 0.3754 1 0)">
</image>
<path class="st0" d="M107.5,206C52.1,206,7,160.9,7,105.5S52.1,5,107.5,5S208,50.1,208,105.5S162.9,206,107.5,206z M107.5,10
	C54.8,10,12,52.8,12,105.5c0,52.7,42.8,95.5,95.5,95.5c52.7,0,95.5-42.8,95.5-95.5C203,52.8,160.2,10,107.5,10z"/>
<g>
	<g>
		<path class="st1" d="M155,104c0,26-21,47-47,47s-47-21-47-47s21-47,47-47c5.6,0,10.9,1,15.9,2.8C142,66.3,155,83.6,155,104z"/>
	</g>
	<defs>
		<filter id="Adobe_OpacityMaskFilter" filterUnits="userSpaceOnUse" x="61" y="57" width="94" height="94">
			
				<feColorMatrix  type="matrix" values="-1 0 0 0 1  0 -1 0 0 1  0 0 -1 0 1  0 0 0 1 0" color-interpolation-filters="sRGB" result="source"/>
		</filter>
	</defs>
	<mask maskUnits="userSpaceOnUse" x="61" y="57" width="94" height="94" id="SVGID_1_">
		<g class="st2">
			<image style="overflow:visible;" width="98" height="98" xlink:href="22110940.jpg"  transform="matrix(1 0 0 1 59 55)">
			</image>
		</g>
	</mask>
	<g class="st3">
		<path class="st4" d="M155,104c0,26-21,47-47,47s-47-21-47-47s21-47,47-47c5.6,0,10.9,1,15.9,2.8C142,66.3,155,83.6,155,104z"/>
	</g>
</g>
<g>
	<g>
		<path class="st5" d="M101,142c0,0-6-4-7-6s-1-5-1-5l-2-4c0,0,0-5.3,0-7c0,0,1.5-7.5-1.5-9.5s-9-8-9-12c0,0,0-6,3-9c0,0-5,0-7-4
			c-3-1-4-3-6-3s-3.8-0.3-3.4-1.6c0.4-1.4,2.8-4.4,2.8-4.4s0.6,3,2.6,3s2-2,3-2s2,0,2,1s-2,2-1,3s4,1,4,2s0,2,0,3s4,1,4,0s2-2,3-2
			s1,0,2,1s0,1,1,1s0,0,2,0c0,0,3,0,4,2c0,0,1,1,2,1s3,0,3,1s-1,2,0,3s2,2,6,3s6,2,5,5s-2,4-2,7s1,4-1,5s-4,2-4,3s1,1,0,2s-2,1-2,2
			c0,0,1,2-1,3c0,0-1,1-1,2s0,1-2,2c0,0-1,0-1,2s-1,3,0,5s2,2,3,3S104.5,142.5,101,142z"/>
	</g>
	<defs>
		<filter id="Adobe_OpacityMaskFilter_1_" filterUnits="userSpaceOnUse" x="67" y="76.5" width="45.7" height="65.6">
			
				<feColorMatrix  type="matrix" values="-1 0 0 0 1  0 -1 0 0 1  0 0 -1 0 1  0 0 0 1 0" color-interpolation-filters="sRGB" result="source"/>
		</filter>
	</defs>
	<mask maskUnits="userSpaceOnUse" x="67" y="76.5" width="45.7" height="65.6" id="SVGID_2_">
		<g class="st6">
			<image style="overflow:visible;" width="50" height="71" xlink:href="22110947.jpg"  transform="matrix(1 0 0 1 65 74)">
			</image>
		</g>
	</mask>
	<g class="st7">
		<path class="st4" d="M101,142c0,0-6-4-7-6s-1-5-1-5l-2-4c0,0,0-5.3,0-7c0,0,1.5-7.5-1.5-9.5s-9-8-9-12c0,0,0-6,3-9c0,0-5,0-7-4
			c-3-1-4-3-6-3s-3.8-0.3-3.4-1.6c0.4-1.4,2.8-4.4,2.8-4.4s0.6,3,2.6,3s2-2,3-2s2,0,2,1s-2,2-1,3s4,1,4,2s0,2,0,3s4,1,4,0s2-2,3-2
			s1,0,2,1s0,1,1,1s0,0,2,0c0,0,3,0,4,2c0,0,1,1,2,1s3,0,3,1s-1,2,0,3s2,2,6,3s6,2,5,5s-2,4-2,7s1,4-1,5s-4,2-4,3s1,1,0,2s-2,1-2,2
			c0,0,1,2-1,3c0,0-1,1-1,2s0,1-2,2c0,0-1,0-1,2s-1,3,0,5s2,2,3,3S104.5,142.5,101,142z"/>
	</g>
</g>
<g>
	<g>
		<path class="st5" d="M123,61c0,0,0,2,1,4s-1,2-1,3s-1,3-1,3s-1,1-2,2s-2,2-2,5s-1,6,1,9s3,5,7,4s5-2,6-2s2,1,2,2s0,0,1,1s2,2,1,3
			s-2,1-1,2s1,2,2,2s1,1,1,1s1,1,1,2s-1,2-1,3s-2,2-1,4s2,4,2,4s-1,4,1,6s2,3,2,4s1,2,3,2s3,0,5-3s4.7-7,4.8-14
			c0,0,1.7-16.7-7.6-29.9c0,0-8.1-13.2-24.2-18.7C123.1,59.5,123,60,123,61z"/>
	</g>
	<defs>
		<filter id="Adobe_OpacityMaskFilter_2_" filterUnits="userSpaceOnUse" x="117.8" y="59.5" width="37.2" height="65.5">
			
				<feColorMatrix  type="matrix" values="-1 0 0 0 1  0 -1 0 0 1  0 0 -1 0 1  0 0 0 1 0" color-interpolation-filters="sRGB" result="source"/>
		</filter>
	</defs>
	<mask maskUnits="userSpaceOnUse" x="117.8" y="59.5" width="37.2" height="65.5" id="SVGID_3_">
		<g class="st8">
			<image style="overflow:visible;" width="42" height="70" xlink:href="22110941.jpg"  transform="matrix(1 0 0 1 115 57)">
			</image>
		</g>
	</mask>
	<g class="st9">
		<path class="st4" d="M123,61c0,0,0,2,1,4s-1,2-1,3s-1,3-1,3s-1,1-2,2s-2,2-2,5s-1,6,1,9s3,5,7,4s5-2,6-2s2,1,2,2s0,0,1,1s2,2,1,3
			s-2,1-1,2s1,2,2,2s1,1,1,1s1,1,1,2s-1,2-1,3s-2,2-1,4s2,4,2,4s-1,4,1,6s2,3,2,4s1,2,3,2s3,0,5-3s4.7-7,4.8-14
			c0,0,1.7-16.7-7.6-29.9c0,0-8.1-13.2-24.2-18.7C123.1,59.5,123,60,123,61z"/>
	</g>
</g>
<path class="st5" d="M74.7,70.8c0,0,0.3,0.2,2.3,0.2s3-1,3,1s2,5,2,3s0-4,1-5c0,0,1-2,2-2s2,0,2-1s-1-1,0-2s1-1,2-2s3-1,3-1
	s1-2.4,0-2.2C91,60,80.4,64.6,74.7,70.8z"/>
</svg>
