<?xml version="1.0" encoding="utf-8"?>
<!-- Generator: Adobe Illustrator 22.0.0, SVG Export Plug-In . SVG Version: 6.00 Build 0)  -->
<svg version="1.1" id="Layer_1" xmlns="http://www.w3.org/2000/svg" xmlns:xlink="http://www.w3.org/1999/xlink" x="0px" y="0px"
	 viewBox="0 0 216 216" style="enable-background:new 0 0 216 216;" xml:space="preserve">
<style type="text/css">
	.st0{fill:#60379C;}
	.st1{fill:#44C7F5;}
	.st2{fill:#FFFFFF;}
	.st3{fill:#FFFFFF;stroke:#44C7F5;stroke-miterlimit:10;}
</style>
<path class="st0" d="M106,204.5c-54.3,0-98.5-44.2-98.5-98.5C7.5,51.7,51.7,7.5,106,7.5c54.3,0,98.5,44.2,98.5,98.5
	C204.5,160.3,160.3,204.5,106,204.5z M106,13.5C55,13.5,13.5,55,13.5,106S55,198.5,106,198.5s92.5-41.5,92.5-92.5S157,13.5,106,13.5
	z"/>
<path d="M126,164.5H86c-7.4,0-13.5-6.1-13.5-13.5V64c0-7.4,6.1-13.5,13.5-13.5h40c7.4,0,13.5,6.1,13.5,13.5v87
	C139.5,158.4,133.4,164.5,126,164.5z M86,53.5c-5.8,0-10.5,4.7-10.5,10.5v87c0,5.8,4.7,10.5,10.5,10.5h40c5.8,0,10.5-4.7,10.5-10.5
	V64c0-5.8-4.7-10.5-10.5-10.5H86z"/>
<path d="M113,62H99c-0.6,0-1-0.5-1-1l0,0c0-0.5,0.4-1,1-1h14c0.6,0,1,0.5,1,1l0,0C114,61.5,113.6,62,113,62z"/>
<path d="M106.5,156c-3,0-5.5-2.5-5.5-5.5s2.5-5.5,5.5-5.5c3,0,5.5,2.5,5.5,5.5S109.5,156,106.5,156z M106.5,146
	c-2.5,0-4.5,2-4.5,4.5s2,4.5,4.5,4.5s4.5-2,4.5-4.5S109,146,106.5,146z"/>
<g>
	<rect x="79" y="70" class="st1" width="54" height="72"/>
	<g>
		<path class="st2" d="M99,112.3l0-8.4c-2.8-0.7-4.9-1.9-6.2-3.4c-1.3-1.5-2-3.3-2-5.5c0-2.2,0.7-4,2.2-5.5c1.5-1.5,3.4-2.4,5.9-2.6
			l0-2l3.1,0l0,2c2.3,0.2,4.1,1,5.5,2.1c1.4,1.2,2.2,2.8,2.6,4.8l-5.4,0.7c-0.3-1.6-1.2-2.6-2.6-3.2l0,7.8c3.4,0.9,5.8,2,7,3.3
			c1.3,1.4,1.9,3.1,1.9,5.3c0,2.4-0.8,4.4-2.3,6.1c-1.6,1.7-3.7,2.7-6.5,3.1l0,3.7l-3.1,0l0-3.6c-2.5-0.3-4.5-1.1-6.1-2.5
			c-1.6-1.4-2.6-3.5-3-6.1l5.6-0.6c0.2,1.1,0.7,2,1.3,2.7C97.6,111.4,98.3,111.9,99,112.3z M99,91.3c-0.8,0.3-1.5,0.7-2,1.4
			c-0.5,0.6-0.7,1.3-0.7,2.1c0,0.7,0.2,1.4,0.7,2c0.5,0.6,1.2,1.1,2.1,1.5L99,91.3z M102.2,112.5c1.1-0.2,1.9-0.7,2.6-1.4
			c0.7-0.7,1-1.6,1-2.6c0-0.9-0.3-1.7-0.9-2.3c-0.6-0.6-1.5-1.1-2.8-1.5L102.2,112.5z"/>
	</g>
	<circle class="st3" cx="110" cy="112" r="9"/>
	<rect x="105" y="111" class="st1" width="10" height="2"/>
	<rect x="105" y="111" transform="matrix(-1.836970e-16 1 -1 -1.836970e-16 222 2)" class="st1" width="10" height="2"/>
</g>
</svg>
