<?xml version="1.0" encoding="utf-8"?>
<!-- Generator: Adobe Illustrator 22.0.0, SVG Export Plug-In . SVG Version: 6.00 Build 0)  -->
<svg version="1.1" id="Layer_1" xmlns="http://www.w3.org/2000/svg" xmlns:xlink="http://www.w3.org/1999/xlink" x="0px" y="0px"
	 viewBox="0 0 216 216" style="enable-background:new 0 0 216 216;" xml:space="preserve">
<style type="text/css">
	.st0{fill:#AE92C4;}
	.st1{fill:none;}
	.st2{fill:#93AFCA;}
	.st3{fill:#FFDDCA;}
	.st4{fill:#B62739;}
	.st5{fill:#B9D4F3;}
	.st6{fill:#FFE6D3;}
	.st7{fill:#554C44;}
	.st8{fill:#121112;}
	.st9{fill:#1D1B1E;}
</style>
<circle id="XMLID_8234_" class="st0" cx="108" cy="108" r="105"/>
<path id="XMLID_7872_" class="st1" d="M135.3,134.8c0.2,0.2,0.4,0.4,0.6,0.6C135.7,135.1,135.5,134.9,135.3,134.8z"/>
<path id="XMLID_7871_" class="st1" d="M83.3,134.6c-0.3,0.2-0.6,0.5-1,1C82.6,135.3,83,135,83.3,134.6z"/>
<path id="XMLID_7869_" class="st2" d="M105.1,164.1c-1.7-3.8-3.6-5.9-3.8-9c-1.7,1.9-3,3.9-2.8,5.8c0.5,5.3-15-12.6-17-21.7
	c-0.2,1.6-0.3,5.3,4.6,12.5c2.4,3.6,8.8,21.9,15.2,41.7c2-13.3,3.9-25.4,4.5-28.6C105.5,164.6,105.2,164.4,105.1,164.1z"/>
<path id="XMLID_7868_" class="st2" d="M113.3,164.1c-0.1,0.3-0.4,0.5-0.7,0.7c0.6,3.3,2.6,15.9,4.6,29.6c5.4-18.4,12-38.3,14.9-42.7
	c4.7-6.9,4.8-10.5,4.6-12.2c-2.2,9.1-17.4,26.7-16.9,21.4c0.2-1.9-1.1-3.9-2.8-5.8C116.9,158.2,115,160.4,113.3,164.1z"/>
<path id="XMLID_7867_" class="st2" d="M134.2,157l0.1,0.1c0,0,0-0.1,0-0.1C134.3,157,134.2,157,134.2,157z"/>
<g>
	<path id="XMLID_7870_" class="st3" d="M108.9,146.5c0.1,0.1,0.2,0.2,0.2,0.3c0-0.1,0.1-0.2,0.2-0.3c12.5-9.5,17.4-15.9,19.5-17.6
		c-1.5-3.2-2.1-6.4-2.4-9c-0.3,0.2-0.5,0.5-0.8,0.7c-1.5,1.3-3.1,2.5-4.8,3.5c-1.5,0.9-3,1.6-4.6,2.1c-1.5,0.5-3,0.8-4.5,0.9
		c-1.9,0.2-3.9,0.1-5.8-0.2c-1.6-0.2-3.1-0.7-4.5-1.2c-1.6-0.6-3.2-1.5-4.7-2.5c-1.7-1.2-3.4-2.5-4.9-4c0,0,0,0,0,0
		c-0.2,2.7-0.8,6.2-2.4,9.6C91.7,130.7,96.6,137.1,108.9,146.5z"/>
	<path id="XMLID_7866_" class="st4" d="M117.2,194.6c-2.1-13.7-4-26.4-4.7-29.7c0.3-0.2,0.5-0.4,0.7-0.7c1.7-3.8,3.6-5.9,3.8-9.1
		c-3-3.4-7.4-6.4-7.9-8c-0.4,1.5-4.9,4.6-7.9,8c0.2,3.1,2.1,5.3,3.8,9.1c0.1,0.3,0.4,0.5,0.7,0.7c-0.6,3.2-2.5,15.3-4.5,28.6
		c2.1,6.5,4.1,13.1,6,19.4c0.4,0,0.8,0,1.2,0c1.2,0,2.5-0.1,3.7-0.1C113.5,207.5,115.3,201.2,117.2,194.6z"/>
	<path id="XMLID_7865_" class="st5" d="M83.2,134.8c-0.4,0.4-0.7,0.7-1,1c-0.4,0.6-0.8,1.5-0.7,2.8c0,0.2,0,0.4-0.1,0.8
		c1.9,9.1,17.5,27,17,21.7c-0.2-1.9,1.1-3.9,2.8-5.8c3-3.4,7.4-6.4,7.9-8c0.4,1.5,4.9,4.6,7.9,8c1.7,1.9,3,3.9,2.8,5.8
		c-0.5,5.3,14.8-12.3,17-21.5c0-0.5-0.1-0.8-0.1-1c0.1-1.5-0.4-2.5-0.9-3.1c-0.2-0.2-0.4-0.4-0.6-0.6c-0.3-0.2-0.5-0.3-0.5-0.3
		s0.1,0,0.2,0c-1.3-1.3-3-3-4.6-5.8c-0.3-0.5-0.7-0.5-1.4,0.1c-2.2,1.7-7.1,8.1-19.5,17.6c-0.1,0.1-0.2,0.2-0.2,0.3
		c0-0.1-0.1-0.2-0.2-0.3c-12.3-9.4-17.3-15.8-19.5-17.6c-0.8-0.6-1.2-0.7-1.5-0.1c-1.6,2.8-3.3,4.5-4.6,5.8c0.1,0,0.1,0,0.1,0
		S83.3,134.7,83.2,134.8z"/>
	<path id="XMLID_7864_" class="st6" d="M96.8,123.3c1.5,1,3,1.8,4.7,2.5c1.5,0.6,3,1,4.5,1.2c1.9,0.3,3.8,0.4,5.8,0.2
		c1.5-0.2,3.1-0.5,4.5-0.9c1.6-0.5,3.2-1.2,4.6-2.1c1.7-1,3.3-2.2,4.8-3.5c0.3-0.2,0.5-0.5,0.8-0.7c0.2-0.2,0.4-0.4,0.6-0.6
		c6.4-6.2,6.4-21.9,7.9-20.8c3.5,2.4,5.8-4.7,6.3-8.9c0.4-3.6-1-5.4-2.5-4.7c-0.4,0.9-0.9,1.6-1.5,1.9c0,0-2.2,9.2-3.2,8.9
		c-0.9-0.3-0.5-8.5,0.9-18.2c1.6-10.3-11.1-5.8-19.9-6.1c-8.9-0.3-29.4-2-30.9,2.9c-1.6,4.9,1.5,19.6,0.2,20.1
		c-1.3,0.6-2.8-6.7-4.1-8.1c-0.2-0.2-0.4-0.8-0.6-1.5c-1.3-0.1-2.3,1.7-1.9,4.9c0.4,4.2,2.7,11.3,6.3,8.9c1.5-1.1,1.5,14.5,7.9,20.7
		c0,0,0,0,0,0C93.4,120.8,95,122.1,96.8,123.3z"/>
	<path id="XMLID_7863_" class="st7" d="M84.4,94.4c1.3-0.6-1.8-15.3-0.2-20.1c1.6-4.9,22.1-3.1,30.9-2.9c8.9,0.3,21.5-4.2,19.9,6.1
		c-1.5,9.7-1.9,17.9-0.9,18.2c0.9,0.3,3.2-8.9,3.2-8.9c0.6-0.4,1.1-1,1.5-1.9c2.5-5.5,1.3-19.6,1.3-22.1c0-2.9-4.4-7.7-6.3-7.7
		s-0.3-8-13.3-11.4c-13-3.4-24.4-1.7-30.7,1.4c-6.3,3.1-11.1,8.6-13.9,9.4c-2.8,0.9,0.9,2.9-1.3,4.9c-2.2,2,1.6,4.6,2.2,8.6
		c0.5,3.4,1.7,12.9,2.9,16.8c0.2,0.7,0.4,1.3,0.6,1.5C81.6,87.7,83.2,95,84.4,94.4z"/>
	<path id="XMLID_7862_" class="st8" d="M145.8,143.6c3.1,5.6,3.3,9,5.5,10.6c2.1,1.5-15.1,2.8-17,2.9c0,0,0,0.1,0,0.1l12.1,9.1
		c0,0-10.5,14.3-16.1,22.6c-2,2.9-6.9,11.4-9.7,16.3c-0.8,1.4-2.3,4.2-4,7.5c16.4-1.3,31.7-6.3,45.1-14.2
		c1.7-20.6,6.5-48.4,15.8-46.8c-3.7-1.6-14-3.6-21-6.5c-6-2.5-10.8-5.5-13.8-5.6C143.8,140.7,144.9,142,145.8,143.6z"/>
	<path id="XMLID_7861_" d="M135.2,134.9c0.2,0.1,0.4,0.3,0.6,0.6c0.5,0.6,0.9,1.6,0.9,3.1c0,0.2,0.1,0.5,0.1,1
		c0.2,1.7,0.1,5.3-4.6,12.2c-3,4.4-9.6,24.4-15,42.8c-1.9,6.6-3.7,12.9-5.1,18.3c1.5-0.1,2.9-0.1,4.4-0.2c1.7-3.2,3.2-6.1,4-7.5
		c2.8-4.8,7.7-13.3,9.7-16.3c5.6-8.4,16.1-22.6,16.1-22.6l-12.1-9.1l-0.1-0.1c0,0,0.1,0,0.2,0c1.9-0.1,19.1-1.4,17-2.9
		c-2.2-1.6-2.4-5.1-5.5-10.6c-0.9-1.6-2-2.9-3.2-3.9c-1.6-1.4-3.1-2.4-3.9-3.1c-2.2-1.9-3.5-2-3.9-2c-0.1,0-0.2,0-0.2,0
		S134.9,134.7,135.2,134.9z"/>
	<path id="XMLID_7860_" class="st9" d="M58,200.1c12.9,7.1,27.5,11.6,43,12.6c-1.7-3.8-3-6.6-3.5-7.5c-2.8-4.8-7.7-13.3-9.7-16.3
		c-5.6-8.4-16.1-22.6-16.1-22.6l12.2-9.2c0,0-19.4-1.3-17.2-2.9c2.2-1.6,2.4-5.1,5.5-10.6c0.9-1.6,2.1-2.9,3.3-4
		c-3,0.9-7,3.3-11.9,5.2c-7.7,3.1-19.4,5.3-21.9,6.9C51.6,149.4,56.4,179.2,58,200.1z"/>
	<path id="XMLID_7859_" d="M72.3,143.6c-3.1,5.6-3.3,9-5.5,10.6c-2.2,1.6,17.2,2.9,17.2,2.9l-12.2,9.2c0,0,10.5,14.3,16.1,22.6
		c2,2.9,6.9,11.4,9.7,16.3c0.5,0.9,1.8,3.7,3.5,7.5c2,0.1,4.1,0.2,6.2,0.3c-1.9-6.3-4-12.9-6-19.4c-6.3-19.8-12.8-38.2-15.2-41.7
		c-4.9-7.2-4.8-10.9-4.6-12.5c0-0.4,0.1-0.6,0.1-0.8c-0.1-1.3,0.3-2.2,0.7-2.8c0.4-0.5,0.7-0.8,1-1c0.1-0.1,0.3-0.1,0.3-0.1
		s0,0-0.1,0c-0.3,0-1.7,0-4,1.9c-0.8,0.7-2.2,1.6-3.8,3C74.5,140.6,73.3,142,72.3,143.6z"/>
	<path id="XMLID_7858_" d="M58,200.1c-1.6-20.9-6.5-50.6-16.2-48.3c-0.4,0.1-0.8,0.2-1.2,0.4c-2.2,1.1-4.5,12.8-7.3,29
		C40.5,188.6,48.9,195,58,200.1z"/>
	<path id="XMLID_7857_" d="M161.6,198.5c9-5.3,17.2-12,24.2-19.7c-2.6-15-4.8-25.6-6.9-26.6c-0.5-0.3-1-0.4-1.5-0.5
		C168.1,150.1,163.3,177.9,161.6,198.5z"/>
</g>
</svg>
