<?xml version="1.0" encoding="utf-8"?>
<!-- Generator: Adobe Illustrator 22.0.0, SVG Export Plug-In . SVG Version: 6.00 Build 0)  -->
<svg version="1.1" id="Layer_1" xmlns="http://www.w3.org/2000/svg" xmlns:xlink="http://www.w3.org/1999/xlink" x="0px" y="0px"
	 viewBox="0 0 216 216" style="enable-background:new 0 0 216 216;" xml:space="preserve">
<style type="text/css">
	.st0{fill:#575757;}
</style>
<path class="st0" d="M166,100.5c-26.2,0-47.5,21.3-47.5,47.5c0,26.2,21.3,47.5,47.5,47.5s47.5-21.3,47.5-47.5
	C213.5,121.8,192.2,100.5,166,100.5z M134,151v-8h66v8H134z M97.7,81.7c-2.4,0-4.5,0.7-6.1,2.3s-2.4,3.4-2.4,5.6
	c0,3.2,1.8,5.8,5.3,7.8L97.7,81.7z M97.7,111.2L94,128.4c3.2-0.3,5.7-1.3,7.5-3c1.8-1.8,2.6-3.8,2.6-6.2c0-1.6-0.4-2.9-1.2-4.1
	C102.2,113.9,100.4,112.6,97.7,111.2z M141,98.2V64h29.6c-0.4,1.1-0.6,2.3-0.6,3.5c0,5.8,4.7,10.5,10.5,10.5c1.6,0,3.1-0.4,4.5-1
	v20.2c2.4,0.9,4.8,1.9,7,3.1V57h-51v-8h44v-7h-44.6l-2.3-8H178v-7h-42l-2-7H60l-1.8,7H17v7h39.5l-2,8H10v7h44v8H3v101h51v7h60.2
	c-1.4-5.1-2.2-10.5-2.2-16C112,127.4,123.6,108.5,141,98.2z M54,151H23c0.6-1.4,1-2.9,1-4.5c0-5.8-4.7-10.5-10.5-10.5
	c-1.2,0-2.4,0.2-3.5,0.6V77c1.4,0.6,2.9,1,4.5,1C20.3,78,25,73.3,25,67.5c0-1.2-0.2-2.4-0.6-3.5H54V151z M92.1,138l-1.6,7.6h-6.2
	l1.7-8.3c-4.1-1-7.5-3.2-10.1-6.4c-2.6-3.3-4.1-7.4-4.5-12.3l10.9-0.6c0.5,4.9,2.5,8.2,5.7,9.6l4-19c-4.6-2-7.9-4.6-10-7.8
	c-2.1-3.2-3.2-6.5-3.2-9.9c0-3.1,0.8-6.1,2.5-9c1.7-2.9,4.1-5.2,7.2-6.8c3.1-1.6,6-2.4,8.8-2.4l2.3,0l0.8-3.7h6.2l-0.9,4.4
	c3.7,0.9,6.7,2.7,8.9,5.3c2.2,2.6,3.5,6,3.9,10.1l-10.6,0.6c-0.5-3.2-1.9-5.4-4.2-6.7L100,99.8c5.1,2.1,8.8,4.6,11,7.7
	c2.2,3.1,3.3,6.6,3.3,10.6c0,5.5-2,10.2-6.1,14C104.1,136,98.7,138,92.1,138z"/>
</svg>
