<?xml version="1.0" encoding="utf-8"?>
<!-- Generator: Adobe Illustrator 22.0.0, SVG Export Plug-In . SVG Version: 6.00 Build 0)  -->
<svg version="1.1" id="Layer_1" xmlns="http://www.w3.org/2000/svg" xmlns:xlink="http://www.w3.org/1999/xlink" x="0px" y="0px"
	 viewBox="0 0 216 216" style="enable-background:new 0 0 216 216;" xml:space="preserve">
<style type="text/css">
	.st0{fill:#575757;}
</style>
<path class="st0" d="M182.1,1.5H33.9c-2.4,0-4.4,2-4.4,4.4v203.1c0,2.4,2,4.4,4.4,4.4h148.1c2.4,0,4.4-2,4.4-4.4V5.9
	C186.5,3.5,184.5,1.5,182.1,1.5z M180.5,207.5h-145V7.5h145V207.5z M75.4,34.5h65.1c2.2,0,3.9-1.8,3.9-3.9V19.4
	c0-2.2-1.8-3.9-3.9-3.9H75.4c-2.2,0-3.9,1.8-3.9,3.9v11.1C71.5,32.7,73.3,34.5,75.4,34.5z M76.5,20.5h63v9h-63V20.5z M105,46
	c0,1.6,1.3,3,3,3h62c1.7,0,3-1.4,3-3c0-1.7-1.3-3-3-3h-62C106.3,43,105,44.3,105,46z M170,57h-62c-1.7,0-3,1.3-3,3c0,1.6,1.3,3,3,3
	h62c1.7,0,3-1.4,3-3C173,58.3,171.7,57,170,57z M170,71h-62c-1.7,0-3,1.3-3,3c0,1.6,1.3,3,3,3h62c1.7,0,3-1.4,3-3
	C173,72.3,171.7,71,170,71z M148,88c0-1.7-1.3-3-3-3h-37c-1.7,0-3,1.3-3,3c0,1.6,1.3,3,3,3h37C146.7,91,148,89.6,148,88z M108,105
	H52c-1.7,0-3,1.3-3,3c0,1.6,1.3,3,3,3h56c1.7,0,3-1.4,3-3C111,106.3,109.7,105,108,105z M108,119H52c-1.7,0-3,1.3-3,3
	c0,1.6,1.3,3,3,3h56c1.7,0,3-1.4,3-3C111,120.3,109.7,119,108,119z M82,139c1.7,0,3-1.4,3-3c0-1.7-1.3-3-3-3H52c-1.7,0-3,1.3-3,3
	c0,1.6,1.3,3,3,3H82z M67.3,91C80.9,91,92,79.9,92,66.3S80.9,41.5,67.3,41.5S42.5,52.6,42.5,66.3S53.6,91,67.3,91z M71,48.9
	c7.3,1.6,12.9,7.6,13.8,15.1H71V48.9z M64,48.8v17.7c0,0.1,0,0.2,0,0.3c0,0.1,0,0.2,0,0.3c0,1.6,1.3,3,3,3h17.6
	c-1.7,8-8.8,14-17.3,14c-9.8,0-17.8-8-17.8-17.8C49.5,57.6,55.8,50.3,64,48.8z M66.1,181.5H48.9c-2.2,0-3.9,1.8-3.9,3.9v10.6
	c0,2.2,1.8,3.9,3.9,3.9h17.1c2.2,0,3.9-1.8,3.9-3.9v-10.6C70,183.3,68.2,181.5,66.1,181.5z M65,195H50v-8.5h15V195z M100.1,161H82.9
	c-2.2,0-3.9,1.8-3.9,3.9v31.1c0,2.2,1.8,3.9,3.9,3.9h17.1c2.2,0,3.9-1.8,3.9-3.9v-31.1C104,162.8,102.2,161,100.1,161z M99,195H84
	v-29h15V195z M132.3,136h-15.7c-2.6,0-4.7,2.1-4.7,4.7v54.7c0,2.6,2.1,4.7,4.7,4.7h15.7c2.6,0,4.7-2.1,4.7-4.7v-54.7
	C137,138.1,134.9,136,132.3,136z M132,195h-15v-54h15V195z M166.3,118.5h-16.2c-2.6,0-4.7,2.1-4.7,4.7v72.2c0,2.6,2.1,4.7,4.7,4.7
	h16.2c2.6,0,4.7-2.1,4.7-4.7v-72.2C171,120.6,168.9,118.5,166.3,118.5z M166,195h-15.5v-71.5H166V195z"/>
</svg>
