<?xml version="1.0" encoding="utf-8"?>
<!-- Generator: Adobe Illustrator 22.0.0, SVG Export Plug-In . SVG Version: 6.00 Build 0)  -->
<svg version="1.1" id="Layer_1" xmlns="http://www.w3.org/2000/svg" xmlns:xlink="http://www.w3.org/1999/xlink" x="0px" y="0px"
	 viewBox="0 0 216 216" style="enable-background:new 0 0 216 216;" xml:space="preserve">
<style type="text/css">
	.st0{fill:#60379C;}
</style>
<g>
	<path class="st0" d="M116.9,42.4V32.1h36.2v10.3c0,5,4.1,9.1,9.1,9.1h0c5,0,9.1-4.1,9.1-9.1V32.1h2.2c13.9,0,25.2,11.3,25.2,25.2
		v33.5c0,4.6,3.7,8.3,8.3,8.3h0c4.6,0,8.3-3.7,8.3-8.3V57.3c0-23.1-18.7-41.8-41.8-41.8h-2.2V9.3c0-5-4.1-9.1-9.1-9.1h0
		c-5,0-9.1,4.1-9.1,9.1v6.2h-36.2V9.3c0-5-4.1-9.1-9.1-9.1h0c-5,0-9.1,4.1-9.1,9.1v6.2H62.6V9.3c0-5-4.1-9.1-9.1-9.1h0
		c-5,0-9.1,4.1-9.1,9.1v6.2h-2.7C18.7,15.5,0,34.2,0,57.3v115.9C0,196.3,18.7,215,41.8,215h52.9c4.6,0,8.3-3.7,8.3-8.3v0
		c0-4.6-3.7-8.3-8.3-8.3H41.8c-13.9,0-25.2-11.3-25.2-25.2V58.4c0-14.5,11.8-26.3,26.3-26.3h1.6v10.3c0,5,4.1,9.1,9.1,9.1h0
		c5,0,9.1-4.1,9.1-9.1V32.1h36.2v10.3c0,5,4.1,9.1,9.1,9.1h0C112.9,51.5,116.9,47.4,116.9,42.4z"/>
	<circle class="st0" cx="53.8" cy="89.2" r="8.3"/>
	<circle class="st0" cx="89.5" cy="89.2" r="8.3"/>
	<circle class="st0" cx="53.8" cy="124.9" r="8.3"/>
	<circle class="st0" cx="89.5" cy="124.9" r="8.3"/>
	<circle class="st0" cx="53.8" cy="160.6" r="8.3"/>
	<circle class="st0" cx="89.5" cy="160.6" r="8.3"/>
	<circle class="st0" cx="125.2" cy="89.2" r="8.3"/>
	<circle class="st0" cx="160.9" cy="89.2" r="8.3"/>
	<path class="st0" d="M164,111.8c-28.7,0-52,23.3-52,52s23.3,52,52,52s52-23.3,52-52S192.7,111.8,164,111.8z M164,198.7
		c-19.3,0-34.9-15.7-34.9-34.9s15.7-34.9,34.9-34.9s34.9,15.7,34.9,34.9S183.3,198.7,164,198.7z"/>
	<path class="st0" d="M175.6,155h-3.4v-8c0-4.7-3.8-8.5-8.5-8.5h0c-4.7,0-8.5,3.8-8.5,8.5v8v8.5c0,4.7,3.8,8.5,8.5,8.5h8.5h3.4
		c4.7,0,8.5-3.8,8.5-8.5v0C184.2,158.8,180.4,155,175.6,155z"/>
</g>
</svg>
