<?xml version="1.0" encoding="utf-8"?>
<!-- Generator: Adobe Illustrator 22.0.0, SVG Export Plug-In . SVG Version: 6.00 Build 0)  -->
<svg version="1.1" id="Layer_1" xmlns="http://www.w3.org/2000/svg" xmlns:xlink="http://www.w3.org/1999/xlink" x="0px" y="0px"
	 viewBox="0 0 216 216" style="enable-background:new 0 0 216 216;" xml:space="preserve">
<style type="text/css">
	.st0{fill:#575757;}
</style>
<path class="st0" d="M100,11c-29.8,0-54,24.2-54,54s24.2,54,54,54s54-24.2,54-54S129.8,11,100,11z M100,101c-19.9,0-36-16.1-36-36
	s16.1-36,36-36s36,16.1,36,36S119.9,101,100,101z M143,126c0,5,4,9,9,9h44c5,0,9-4,9-9s-4-9-9-9h-44C147,117,143,121,143,126z
	 M196,151h-44c-5,0-9,4-9,9s4,9,9,9h44c5,0,9-4,9-9S201,151,196,151z M196,185h-44c-5,0-9,4-9,9s4,9,9,9h44c5,0,9-4,9-9
	S201,185,196,185z M118,185H39c-1-0.2-5.4-1.4-7-5c-0.9-2.1-0.6-4,0-7c0.3-1.5,1-5,3-9c2.8-5.5,9.7-14.6,20-25c7-7,1-13,0-14
	c-9-6-15,3-17,5c-23,21-25,45-25,48c3,24,23.7,25,23.7,25s0-0.1-0.1-0.3c0.8,0.2,1.6,0.3,2.4,0.3h79c5,0,9-4,9-9S123,185,118,185z"
	/>
</svg>
